<mxfile host="app.diagrams.net" modified="2023-02-20T04:56:50.937Z" agent="5.0 (Macintosh; Intel Mac OS X 10_15_7) AppleWebKit/605.1.15 (KHTML, like Gecko) Version/15.3 Safari/605.1.15" etag="CjEN9KwEgcbzIUobR1nv" version="20.8.20" type="github">
  <diagram name="Page-1" id="vRhuliPIz6gtvqGjKDqa">
    <mxGraphModel dx="2133" dy="844" grid="1" gridSize="10" guides="1" tooltips="1" connect="1" arrows="1" fold="1" page="1" pageScale="1" pageWidth="827" pageHeight="1169" math="0" shadow="0">
      <root>
        <mxCell id="0" />
        <mxCell id="1" parent="0" />
        <mxCell id="ieoLBsuvX7PxbXdkCon5-70" value="" style="edgeStyle=orthogonalEdgeStyle;rounded=0;orthogonalLoop=1;jettySize=auto;html=1;" edge="1" parent="1" source="ieoLBsuvX7PxbXdkCon5-28" target="ieoLBsuvX7PxbXdkCon5-49">
          <mxGeometry relative="1" as="geometry" />
        </mxCell>
        <mxCell id="ieoLBsuvX7PxbXdkCon5-28" value="" style="shape=table;startSize=0;container=1;collapsible=0;childLayout=tableLayout;" vertex="1" parent="1">
          <mxGeometry x="40" y="40" width="110" height="110" as="geometry" />
        </mxCell>
        <mxCell id="ieoLBsuvX7PxbXdkCon5-29" value="" style="shape=tableRow;horizontal=0;startSize=0;swimlaneHead=0;swimlaneBody=0;strokeColor=inherit;top=0;left=0;bottom=0;right=0;collapsible=0;dropTarget=0;fillColor=none;points=[[0,0.5],[1,0.5]];portConstraint=eastwest;" vertex="1" parent="ieoLBsuvX7PxbXdkCon5-28">
          <mxGeometry width="110" height="28" as="geometry" />
        </mxCell>
        <mxCell id="ieoLBsuvX7PxbXdkCon5-30" value="" style="shape=partialRectangle;html=1;whiteSpace=wrap;connectable=0;strokeColor=#82b366;overflow=hidden;fillColor=#d5e8d4;top=0;left=0;bottom=0;right=0;pointerEvents=1;" vertex="1" parent="ieoLBsuvX7PxbXdkCon5-29">
          <mxGeometry width="28" height="28" as="geometry">
            <mxRectangle width="28" height="28" as="alternateBounds" />
          </mxGeometry>
        </mxCell>
        <mxCell id="ieoLBsuvX7PxbXdkCon5-31" value="" style="shape=partialRectangle;html=1;whiteSpace=wrap;connectable=0;strokeColor=inherit;overflow=hidden;fillColor=none;top=0;left=0;bottom=0;right=0;pointerEvents=1;" vertex="1" parent="ieoLBsuvX7PxbXdkCon5-29">
          <mxGeometry x="28" width="27" height="28" as="geometry">
            <mxRectangle width="27" height="28" as="alternateBounds" />
          </mxGeometry>
        </mxCell>
        <mxCell id="ieoLBsuvX7PxbXdkCon5-32" value="" style="shape=partialRectangle;html=1;whiteSpace=wrap;connectable=0;strokeColor=inherit;overflow=hidden;fillColor=none;top=0;left=0;bottom=0;right=0;pointerEvents=1;" vertex="1" parent="ieoLBsuvX7PxbXdkCon5-29">
          <mxGeometry x="55" width="28" height="28" as="geometry">
            <mxRectangle width="28" height="28" as="alternateBounds" />
          </mxGeometry>
        </mxCell>
        <mxCell id="ieoLBsuvX7PxbXdkCon5-33" value="" style="shape=partialRectangle;html=1;whiteSpace=wrap;connectable=0;strokeColor=inherit;overflow=hidden;fillColor=none;top=0;left=0;bottom=0;right=0;pointerEvents=1;" vertex="1" parent="ieoLBsuvX7PxbXdkCon5-29">
          <mxGeometry x="83" width="27" height="28" as="geometry">
            <mxRectangle width="27" height="28" as="alternateBounds" />
          </mxGeometry>
        </mxCell>
        <mxCell id="ieoLBsuvX7PxbXdkCon5-34" value="" style="shape=tableRow;horizontal=0;startSize=0;swimlaneHead=0;swimlaneBody=0;strokeColor=inherit;top=0;left=0;bottom=0;right=0;collapsible=0;dropTarget=0;fillColor=none;points=[[0,0.5],[1,0.5]];portConstraint=eastwest;" vertex="1" parent="ieoLBsuvX7PxbXdkCon5-28">
          <mxGeometry y="28" width="110" height="27" as="geometry" />
        </mxCell>
        <mxCell id="ieoLBsuvX7PxbXdkCon5-35" value="" style="shape=partialRectangle;html=1;whiteSpace=wrap;connectable=0;strokeColor=inherit;overflow=hidden;fillColor=none;top=0;left=0;bottom=0;right=0;pointerEvents=1;" vertex="1" parent="ieoLBsuvX7PxbXdkCon5-34">
          <mxGeometry width="28" height="27" as="geometry">
            <mxRectangle width="28" height="27" as="alternateBounds" />
          </mxGeometry>
        </mxCell>
        <mxCell id="ieoLBsuvX7PxbXdkCon5-36" value="" style="shape=partialRectangle;html=1;whiteSpace=wrap;connectable=0;strokeColor=inherit;overflow=hidden;fillColor=none;top=0;left=0;bottom=0;right=0;pointerEvents=1;" vertex="1" parent="ieoLBsuvX7PxbXdkCon5-34">
          <mxGeometry x="28" width="27" height="27" as="geometry">
            <mxRectangle width="27" height="27" as="alternateBounds" />
          </mxGeometry>
        </mxCell>
        <mxCell id="ieoLBsuvX7PxbXdkCon5-37" value="" style="shape=partialRectangle;html=1;whiteSpace=wrap;connectable=0;strokeColor=inherit;overflow=hidden;fillColor=none;top=0;left=0;bottom=0;right=0;pointerEvents=1;" vertex="1" parent="ieoLBsuvX7PxbXdkCon5-34">
          <mxGeometry x="55" width="28" height="27" as="geometry">
            <mxRectangle width="28" height="27" as="alternateBounds" />
          </mxGeometry>
        </mxCell>
        <mxCell id="ieoLBsuvX7PxbXdkCon5-38" value="" style="shape=partialRectangle;html=1;whiteSpace=wrap;connectable=0;strokeColor=inherit;overflow=hidden;fillColor=none;top=0;left=0;bottom=0;right=0;pointerEvents=1;" vertex="1" parent="ieoLBsuvX7PxbXdkCon5-34">
          <mxGeometry x="83" width="27" height="27" as="geometry">
            <mxRectangle width="27" height="27" as="alternateBounds" />
          </mxGeometry>
        </mxCell>
        <mxCell id="ieoLBsuvX7PxbXdkCon5-39" value="" style="shape=tableRow;horizontal=0;startSize=0;swimlaneHead=0;swimlaneBody=0;strokeColor=inherit;top=0;left=0;bottom=0;right=0;collapsible=0;dropTarget=0;fillColor=none;points=[[0,0.5],[1,0.5]];portConstraint=eastwest;" vertex="1" parent="ieoLBsuvX7PxbXdkCon5-28">
          <mxGeometry y="55" width="110" height="28" as="geometry" />
        </mxCell>
        <mxCell id="ieoLBsuvX7PxbXdkCon5-40" value="" style="shape=partialRectangle;html=1;whiteSpace=wrap;connectable=0;strokeColor=inherit;overflow=hidden;fillColor=none;top=0;left=0;bottom=0;right=0;pointerEvents=1;" vertex="1" parent="ieoLBsuvX7PxbXdkCon5-39">
          <mxGeometry width="28" height="28" as="geometry">
            <mxRectangle width="28" height="28" as="alternateBounds" />
          </mxGeometry>
        </mxCell>
        <mxCell id="ieoLBsuvX7PxbXdkCon5-41" value="" style="shape=partialRectangle;html=1;whiteSpace=wrap;connectable=0;strokeColor=inherit;overflow=hidden;fillColor=none;top=0;left=0;bottom=0;right=0;pointerEvents=1;" vertex="1" parent="ieoLBsuvX7PxbXdkCon5-39">
          <mxGeometry x="28" width="27" height="28" as="geometry">
            <mxRectangle width="27" height="28" as="alternateBounds" />
          </mxGeometry>
        </mxCell>
        <mxCell id="ieoLBsuvX7PxbXdkCon5-42" value="" style="shape=partialRectangle;html=1;whiteSpace=wrap;connectable=0;strokeColor=inherit;overflow=hidden;fillColor=none;top=0;left=0;bottom=0;right=0;pointerEvents=1;" vertex="1" parent="ieoLBsuvX7PxbXdkCon5-39">
          <mxGeometry x="55" width="28" height="28" as="geometry">
            <mxRectangle width="28" height="28" as="alternateBounds" />
          </mxGeometry>
        </mxCell>
        <mxCell id="ieoLBsuvX7PxbXdkCon5-43" value="" style="shape=partialRectangle;html=1;whiteSpace=wrap;connectable=0;strokeColor=inherit;overflow=hidden;fillColor=none;top=0;left=0;bottom=0;right=0;pointerEvents=1;" vertex="1" parent="ieoLBsuvX7PxbXdkCon5-39">
          <mxGeometry x="83" width="27" height="28" as="geometry">
            <mxRectangle width="27" height="28" as="alternateBounds" />
          </mxGeometry>
        </mxCell>
        <mxCell id="ieoLBsuvX7PxbXdkCon5-44" value="" style="shape=tableRow;horizontal=0;startSize=0;swimlaneHead=0;swimlaneBody=0;strokeColor=inherit;top=0;left=0;bottom=0;right=0;collapsible=0;dropTarget=0;fillColor=none;points=[[0,0.5],[1,0.5]];portConstraint=eastwest;" vertex="1" parent="ieoLBsuvX7PxbXdkCon5-28">
          <mxGeometry y="83" width="110" height="27" as="geometry" />
        </mxCell>
        <mxCell id="ieoLBsuvX7PxbXdkCon5-45" value="" style="shape=partialRectangle;html=1;whiteSpace=wrap;connectable=0;strokeColor=inherit;overflow=hidden;fillColor=none;top=0;left=0;bottom=0;right=0;pointerEvents=1;" vertex="1" parent="ieoLBsuvX7PxbXdkCon5-44">
          <mxGeometry width="28" height="27" as="geometry">
            <mxRectangle width="28" height="27" as="alternateBounds" />
          </mxGeometry>
        </mxCell>
        <mxCell id="ieoLBsuvX7PxbXdkCon5-46" value="" style="shape=partialRectangle;html=1;whiteSpace=wrap;connectable=0;strokeColor=inherit;overflow=hidden;fillColor=none;top=0;left=0;bottom=0;right=0;pointerEvents=1;" vertex="1" parent="ieoLBsuvX7PxbXdkCon5-44">
          <mxGeometry x="28" width="27" height="27" as="geometry">
            <mxRectangle width="27" height="27" as="alternateBounds" />
          </mxGeometry>
        </mxCell>
        <mxCell id="ieoLBsuvX7PxbXdkCon5-47" value="" style="shape=partialRectangle;html=1;whiteSpace=wrap;connectable=0;strokeColor=inherit;overflow=hidden;fillColor=none;top=0;left=0;bottom=0;right=0;pointerEvents=1;" vertex="1" parent="ieoLBsuvX7PxbXdkCon5-44">
          <mxGeometry x="55" width="28" height="27" as="geometry">
            <mxRectangle width="28" height="27" as="alternateBounds" />
          </mxGeometry>
        </mxCell>
        <mxCell id="ieoLBsuvX7PxbXdkCon5-48" value="" style="shape=partialRectangle;html=1;whiteSpace=wrap;connectable=0;strokeColor=inherit;overflow=hidden;fillColor=none;top=0;left=0;bottom=0;right=0;pointerEvents=1;" vertex="1" parent="ieoLBsuvX7PxbXdkCon5-44">
          <mxGeometry x="83" width="27" height="27" as="geometry">
            <mxRectangle width="27" height="27" as="alternateBounds" />
          </mxGeometry>
        </mxCell>
        <mxCell id="ieoLBsuvX7PxbXdkCon5-92" value="" style="edgeStyle=orthogonalEdgeStyle;rounded=0;orthogonalLoop=1;jettySize=auto;html=1;" edge="1" parent="1" source="ieoLBsuvX7PxbXdkCon5-49" target="ieoLBsuvX7PxbXdkCon5-71">
          <mxGeometry relative="1" as="geometry" />
        </mxCell>
        <mxCell id="ieoLBsuvX7PxbXdkCon5-49" value="" style="shape=table;startSize=0;container=1;collapsible=0;childLayout=tableLayout;" vertex="1" parent="1">
          <mxGeometry x="240" y="40" width="110" height="110" as="geometry" />
        </mxCell>
        <mxCell id="ieoLBsuvX7PxbXdkCon5-50" value="" style="shape=tableRow;horizontal=0;startSize=0;swimlaneHead=0;swimlaneBody=0;strokeColor=inherit;top=0;left=0;bottom=0;right=0;collapsible=0;dropTarget=0;fillColor=none;points=[[0,0.5],[1,0.5]];portConstraint=eastwest;" vertex="1" parent="ieoLBsuvX7PxbXdkCon5-49">
          <mxGeometry width="110" height="28" as="geometry" />
        </mxCell>
        <mxCell id="ieoLBsuvX7PxbXdkCon5-51" value="" style="shape=partialRectangle;html=1;whiteSpace=wrap;connectable=0;strokeColor=#82b366;overflow=hidden;fillColor=#d5e8d4;top=0;left=0;bottom=0;right=0;pointerEvents=1;" vertex="1" parent="ieoLBsuvX7PxbXdkCon5-50">
          <mxGeometry width="28" height="28" as="geometry">
            <mxRectangle width="28" height="28" as="alternateBounds" />
          </mxGeometry>
        </mxCell>
        <mxCell id="ieoLBsuvX7PxbXdkCon5-52" value="" style="shape=partialRectangle;html=1;whiteSpace=wrap;connectable=0;strokeColor=inherit;overflow=hidden;fillColor=none;top=0;left=0;bottom=0;right=0;pointerEvents=1;" vertex="1" parent="ieoLBsuvX7PxbXdkCon5-50">
          <mxGeometry x="28" width="27" height="28" as="geometry">
            <mxRectangle width="27" height="28" as="alternateBounds" />
          </mxGeometry>
        </mxCell>
        <mxCell id="ieoLBsuvX7PxbXdkCon5-53" value="" style="shape=partialRectangle;html=1;whiteSpace=wrap;connectable=0;strokeColor=inherit;overflow=hidden;fillColor=none;top=0;left=0;bottom=0;right=0;pointerEvents=1;" vertex="1" parent="ieoLBsuvX7PxbXdkCon5-50">
          <mxGeometry x="55" width="28" height="28" as="geometry">
            <mxRectangle width="28" height="28" as="alternateBounds" />
          </mxGeometry>
        </mxCell>
        <mxCell id="ieoLBsuvX7PxbXdkCon5-54" value="" style="shape=partialRectangle;html=1;whiteSpace=wrap;connectable=0;strokeColor=inherit;overflow=hidden;fillColor=none;top=0;left=0;bottom=0;right=0;pointerEvents=1;" vertex="1" parent="ieoLBsuvX7PxbXdkCon5-50">
          <mxGeometry x="83" width="27" height="28" as="geometry">
            <mxRectangle width="27" height="28" as="alternateBounds" />
          </mxGeometry>
        </mxCell>
        <mxCell id="ieoLBsuvX7PxbXdkCon5-55" value="" style="shape=tableRow;horizontal=0;startSize=0;swimlaneHead=0;swimlaneBody=0;strokeColor=inherit;top=0;left=0;bottom=0;right=0;collapsible=0;dropTarget=0;fillColor=none;points=[[0,0.5],[1,0.5]];portConstraint=eastwest;" vertex="1" parent="ieoLBsuvX7PxbXdkCon5-49">
          <mxGeometry y="28" width="110" height="27" as="geometry" />
        </mxCell>
        <mxCell id="ieoLBsuvX7PxbXdkCon5-56" value="" style="shape=partialRectangle;html=1;whiteSpace=wrap;connectable=0;strokeColor=inherit;overflow=hidden;fillColor=none;top=0;left=0;bottom=0;right=0;pointerEvents=1;" vertex="1" parent="ieoLBsuvX7PxbXdkCon5-55">
          <mxGeometry width="28" height="27" as="geometry">
            <mxRectangle width="28" height="27" as="alternateBounds" />
          </mxGeometry>
        </mxCell>
        <mxCell id="ieoLBsuvX7PxbXdkCon5-57" value="" style="shape=partialRectangle;html=1;whiteSpace=wrap;connectable=0;strokeColor=inherit;overflow=hidden;fillColor=none;top=0;left=0;bottom=0;right=0;pointerEvents=1;" vertex="1" parent="ieoLBsuvX7PxbXdkCon5-55">
          <mxGeometry x="28" width="27" height="27" as="geometry">
            <mxRectangle width="27" height="27" as="alternateBounds" />
          </mxGeometry>
        </mxCell>
        <mxCell id="ieoLBsuvX7PxbXdkCon5-58" value="" style="shape=partialRectangle;html=1;whiteSpace=wrap;connectable=0;strokeColor=inherit;overflow=hidden;fillColor=none;top=0;left=0;bottom=0;right=0;pointerEvents=1;" vertex="1" parent="ieoLBsuvX7PxbXdkCon5-55">
          <mxGeometry x="55" width="28" height="27" as="geometry">
            <mxRectangle width="28" height="27" as="alternateBounds" />
          </mxGeometry>
        </mxCell>
        <mxCell id="ieoLBsuvX7PxbXdkCon5-59" value="" style="shape=partialRectangle;html=1;whiteSpace=wrap;connectable=0;strokeColor=inherit;overflow=hidden;fillColor=none;top=0;left=0;bottom=0;right=0;pointerEvents=1;" vertex="1" parent="ieoLBsuvX7PxbXdkCon5-55">
          <mxGeometry x="83" width="27" height="27" as="geometry">
            <mxRectangle width="27" height="27" as="alternateBounds" />
          </mxGeometry>
        </mxCell>
        <mxCell id="ieoLBsuvX7PxbXdkCon5-60" value="" style="shape=tableRow;horizontal=0;startSize=0;swimlaneHead=0;swimlaneBody=0;strokeColor=inherit;top=0;left=0;bottom=0;right=0;collapsible=0;dropTarget=0;fillColor=none;points=[[0,0.5],[1,0.5]];portConstraint=eastwest;" vertex="1" parent="ieoLBsuvX7PxbXdkCon5-49">
          <mxGeometry y="55" width="110" height="28" as="geometry" />
        </mxCell>
        <mxCell id="ieoLBsuvX7PxbXdkCon5-61" value="" style="shape=partialRectangle;html=1;whiteSpace=wrap;connectable=0;strokeColor=inherit;overflow=hidden;fillColor=none;top=0;left=0;bottom=0;right=0;pointerEvents=1;" vertex="1" parent="ieoLBsuvX7PxbXdkCon5-60">
          <mxGeometry width="28" height="28" as="geometry">
            <mxRectangle width="28" height="28" as="alternateBounds" />
          </mxGeometry>
        </mxCell>
        <mxCell id="ieoLBsuvX7PxbXdkCon5-62" value="" style="shape=partialRectangle;html=1;whiteSpace=wrap;connectable=0;strokeColor=inherit;overflow=hidden;fillColor=none;top=0;left=0;bottom=0;right=0;pointerEvents=1;" vertex="1" parent="ieoLBsuvX7PxbXdkCon5-60">
          <mxGeometry x="28" width="27" height="28" as="geometry">
            <mxRectangle width="27" height="28" as="alternateBounds" />
          </mxGeometry>
        </mxCell>
        <mxCell id="ieoLBsuvX7PxbXdkCon5-63" value="" style="shape=partialRectangle;html=1;whiteSpace=wrap;connectable=0;strokeColor=inherit;overflow=hidden;fillColor=none;top=0;left=0;bottom=0;right=0;pointerEvents=1;" vertex="1" parent="ieoLBsuvX7PxbXdkCon5-60">
          <mxGeometry x="55" width="28" height="28" as="geometry">
            <mxRectangle width="28" height="28" as="alternateBounds" />
          </mxGeometry>
        </mxCell>
        <mxCell id="ieoLBsuvX7PxbXdkCon5-64" value="" style="shape=partialRectangle;html=1;whiteSpace=wrap;connectable=0;strokeColor=inherit;overflow=hidden;fillColor=none;top=0;left=0;bottom=0;right=0;pointerEvents=1;" vertex="1" parent="ieoLBsuvX7PxbXdkCon5-60">
          <mxGeometry x="83" width="27" height="28" as="geometry">
            <mxRectangle width="27" height="28" as="alternateBounds" />
          </mxGeometry>
        </mxCell>
        <mxCell id="ieoLBsuvX7PxbXdkCon5-65" value="" style="shape=tableRow;horizontal=0;startSize=0;swimlaneHead=0;swimlaneBody=0;strokeColor=inherit;top=0;left=0;bottom=0;right=0;collapsible=0;dropTarget=0;fillColor=none;points=[[0,0.5],[1,0.5]];portConstraint=eastwest;" vertex="1" parent="ieoLBsuvX7PxbXdkCon5-49">
          <mxGeometry y="83" width="110" height="27" as="geometry" />
        </mxCell>
        <mxCell id="ieoLBsuvX7PxbXdkCon5-66" value="" style="shape=partialRectangle;html=1;whiteSpace=wrap;connectable=0;strokeColor=inherit;overflow=hidden;fillColor=none;top=0;left=0;bottom=0;right=0;pointerEvents=1;" vertex="1" parent="ieoLBsuvX7PxbXdkCon5-65">
          <mxGeometry width="28" height="27" as="geometry">
            <mxRectangle width="28" height="27" as="alternateBounds" />
          </mxGeometry>
        </mxCell>
        <mxCell id="ieoLBsuvX7PxbXdkCon5-67" value="" style="shape=partialRectangle;html=1;whiteSpace=wrap;connectable=0;strokeColor=inherit;overflow=hidden;fillColor=none;top=0;left=0;bottom=0;right=0;pointerEvents=1;" vertex="1" parent="ieoLBsuvX7PxbXdkCon5-65">
          <mxGeometry x="28" width="27" height="27" as="geometry">
            <mxRectangle width="27" height="27" as="alternateBounds" />
          </mxGeometry>
        </mxCell>
        <mxCell id="ieoLBsuvX7PxbXdkCon5-68" value="" style="shape=partialRectangle;html=1;whiteSpace=wrap;connectable=0;strokeColor=inherit;overflow=hidden;fillColor=none;top=0;left=0;bottom=0;right=0;pointerEvents=1;" vertex="1" parent="ieoLBsuvX7PxbXdkCon5-65">
          <mxGeometry x="55" width="28" height="27" as="geometry">
            <mxRectangle width="28" height="27" as="alternateBounds" />
          </mxGeometry>
        </mxCell>
        <mxCell id="ieoLBsuvX7PxbXdkCon5-69" value="" style="shape=partialRectangle;html=1;whiteSpace=wrap;connectable=0;strokeColor=inherit;overflow=hidden;fillColor=none;top=0;left=0;bottom=0;right=0;pointerEvents=1;" vertex="1" parent="ieoLBsuvX7PxbXdkCon5-65">
          <mxGeometry x="83" width="27" height="27" as="geometry">
            <mxRectangle width="27" height="27" as="alternateBounds" />
          </mxGeometry>
        </mxCell>
        <mxCell id="ieoLBsuvX7PxbXdkCon5-114" value="" style="edgeStyle=orthogonalEdgeStyle;rounded=0;orthogonalLoop=1;jettySize=auto;html=1;" edge="1" parent="1" source="ieoLBsuvX7PxbXdkCon5-71">
          <mxGeometry relative="1" as="geometry">
            <mxPoint x="640" y="95" as="targetPoint" />
          </mxGeometry>
        </mxCell>
        <mxCell id="ieoLBsuvX7PxbXdkCon5-71" value="" style="shape=table;startSize=0;container=1;collapsible=0;childLayout=tableLayout;" vertex="1" parent="1">
          <mxGeometry x="440" y="40" width="110" height="110" as="geometry" />
        </mxCell>
        <mxCell id="ieoLBsuvX7PxbXdkCon5-72" value="" style="shape=tableRow;horizontal=0;startSize=0;swimlaneHead=0;swimlaneBody=0;strokeColor=inherit;top=0;left=0;bottom=0;right=0;collapsible=0;dropTarget=0;fillColor=none;points=[[0,0.5],[1,0.5]];portConstraint=eastwest;" vertex="1" parent="ieoLBsuvX7PxbXdkCon5-71">
          <mxGeometry width="110" height="28" as="geometry" />
        </mxCell>
        <mxCell id="ieoLBsuvX7PxbXdkCon5-73" value="" style="shape=partialRectangle;html=1;whiteSpace=wrap;connectable=0;strokeColor=#82b366;overflow=hidden;fillColor=#d5e8d4;top=0;left=0;bottom=0;right=0;pointerEvents=1;" vertex="1" parent="ieoLBsuvX7PxbXdkCon5-72">
          <mxGeometry width="28" height="28" as="geometry">
            <mxRectangle width="28" height="28" as="alternateBounds" />
          </mxGeometry>
        </mxCell>
        <mxCell id="ieoLBsuvX7PxbXdkCon5-74" value="" style="shape=partialRectangle;html=1;whiteSpace=wrap;connectable=0;strokeColor=inherit;overflow=hidden;fillColor=none;top=0;left=0;bottom=0;right=0;pointerEvents=1;" vertex="1" parent="ieoLBsuvX7PxbXdkCon5-72">
          <mxGeometry x="28" width="27" height="28" as="geometry">
            <mxRectangle width="27" height="28" as="alternateBounds" />
          </mxGeometry>
        </mxCell>
        <mxCell id="ieoLBsuvX7PxbXdkCon5-75" value="" style="shape=partialRectangle;html=1;whiteSpace=wrap;connectable=0;strokeColor=inherit;overflow=hidden;fillColor=none;top=0;left=0;bottom=0;right=0;pointerEvents=1;" vertex="1" parent="ieoLBsuvX7PxbXdkCon5-72">
          <mxGeometry x="55" width="28" height="28" as="geometry">
            <mxRectangle width="28" height="28" as="alternateBounds" />
          </mxGeometry>
        </mxCell>
        <mxCell id="ieoLBsuvX7PxbXdkCon5-76" value="" style="shape=partialRectangle;html=1;whiteSpace=wrap;connectable=0;strokeColor=inherit;overflow=hidden;fillColor=none;top=0;left=0;bottom=0;right=0;pointerEvents=1;" vertex="1" parent="ieoLBsuvX7PxbXdkCon5-72">
          <mxGeometry x="83" width="27" height="28" as="geometry">
            <mxRectangle width="27" height="28" as="alternateBounds" />
          </mxGeometry>
        </mxCell>
        <mxCell id="ieoLBsuvX7PxbXdkCon5-77" value="" style="shape=tableRow;horizontal=0;startSize=0;swimlaneHead=0;swimlaneBody=0;strokeColor=inherit;top=0;left=0;bottom=0;right=0;collapsible=0;dropTarget=0;fillColor=none;points=[[0,0.5],[1,0.5]];portConstraint=eastwest;" vertex="1" parent="ieoLBsuvX7PxbXdkCon5-71">
          <mxGeometry y="28" width="110" height="27" as="geometry" />
        </mxCell>
        <mxCell id="ieoLBsuvX7PxbXdkCon5-78" value="" style="shape=partialRectangle;html=1;whiteSpace=wrap;connectable=0;strokeColor=inherit;overflow=hidden;fillColor=none;top=0;left=0;bottom=0;right=0;pointerEvents=1;" vertex="1" parent="ieoLBsuvX7PxbXdkCon5-77">
          <mxGeometry width="28" height="27" as="geometry">
            <mxRectangle width="28" height="27" as="alternateBounds" />
          </mxGeometry>
        </mxCell>
        <mxCell id="ieoLBsuvX7PxbXdkCon5-79" value="" style="shape=partialRectangle;html=1;whiteSpace=wrap;connectable=0;strokeColor=inherit;overflow=hidden;fillColor=none;top=0;left=0;bottom=0;right=0;pointerEvents=1;" vertex="1" parent="ieoLBsuvX7PxbXdkCon5-77">
          <mxGeometry x="28" width="27" height="27" as="geometry">
            <mxRectangle width="27" height="27" as="alternateBounds" />
          </mxGeometry>
        </mxCell>
        <mxCell id="ieoLBsuvX7PxbXdkCon5-80" value="" style="shape=partialRectangle;html=1;whiteSpace=wrap;connectable=0;strokeColor=inherit;overflow=hidden;fillColor=none;top=0;left=0;bottom=0;right=0;pointerEvents=1;" vertex="1" parent="ieoLBsuvX7PxbXdkCon5-77">
          <mxGeometry x="55" width="28" height="27" as="geometry">
            <mxRectangle width="28" height="27" as="alternateBounds" />
          </mxGeometry>
        </mxCell>
        <mxCell id="ieoLBsuvX7PxbXdkCon5-81" value="" style="shape=partialRectangle;html=1;whiteSpace=wrap;connectable=0;strokeColor=inherit;overflow=hidden;fillColor=none;top=0;left=0;bottom=0;right=0;pointerEvents=1;" vertex="1" parent="ieoLBsuvX7PxbXdkCon5-77">
          <mxGeometry x="83" width="27" height="27" as="geometry">
            <mxRectangle width="27" height="27" as="alternateBounds" />
          </mxGeometry>
        </mxCell>
        <mxCell id="ieoLBsuvX7PxbXdkCon5-82" value="" style="shape=tableRow;horizontal=0;startSize=0;swimlaneHead=0;swimlaneBody=0;strokeColor=inherit;top=0;left=0;bottom=0;right=0;collapsible=0;dropTarget=0;fillColor=none;points=[[0,0.5],[1,0.5]];portConstraint=eastwest;" vertex="1" parent="ieoLBsuvX7PxbXdkCon5-71">
          <mxGeometry y="55" width="110" height="28" as="geometry" />
        </mxCell>
        <mxCell id="ieoLBsuvX7PxbXdkCon5-83" value="" style="shape=partialRectangle;html=1;whiteSpace=wrap;connectable=0;strokeColor=inherit;overflow=hidden;fillColor=none;top=0;left=0;bottom=0;right=0;pointerEvents=1;" vertex="1" parent="ieoLBsuvX7PxbXdkCon5-82">
          <mxGeometry width="28" height="28" as="geometry">
            <mxRectangle width="28" height="28" as="alternateBounds" />
          </mxGeometry>
        </mxCell>
        <mxCell id="ieoLBsuvX7PxbXdkCon5-84" value="" style="shape=partialRectangle;html=1;whiteSpace=wrap;connectable=0;strokeColor=inherit;overflow=hidden;fillColor=none;top=0;left=0;bottom=0;right=0;pointerEvents=1;" vertex="1" parent="ieoLBsuvX7PxbXdkCon5-82">
          <mxGeometry x="28" width="27" height="28" as="geometry">
            <mxRectangle width="27" height="28" as="alternateBounds" />
          </mxGeometry>
        </mxCell>
        <mxCell id="ieoLBsuvX7PxbXdkCon5-85" value="" style="shape=partialRectangle;html=1;whiteSpace=wrap;connectable=0;strokeColor=inherit;overflow=hidden;fillColor=none;top=0;left=0;bottom=0;right=0;pointerEvents=1;" vertex="1" parent="ieoLBsuvX7PxbXdkCon5-82">
          <mxGeometry x="55" width="28" height="28" as="geometry">
            <mxRectangle width="28" height="28" as="alternateBounds" />
          </mxGeometry>
        </mxCell>
        <mxCell id="ieoLBsuvX7PxbXdkCon5-86" value="" style="shape=partialRectangle;html=1;whiteSpace=wrap;connectable=0;strokeColor=inherit;overflow=hidden;fillColor=none;top=0;left=0;bottom=0;right=0;pointerEvents=1;" vertex="1" parent="ieoLBsuvX7PxbXdkCon5-82">
          <mxGeometry x="83" width="27" height="28" as="geometry">
            <mxRectangle width="27" height="28" as="alternateBounds" />
          </mxGeometry>
        </mxCell>
        <mxCell id="ieoLBsuvX7PxbXdkCon5-87" value="" style="shape=tableRow;horizontal=0;startSize=0;swimlaneHead=0;swimlaneBody=0;strokeColor=inherit;top=0;left=0;bottom=0;right=0;collapsible=0;dropTarget=0;fillColor=none;points=[[0,0.5],[1,0.5]];portConstraint=eastwest;" vertex="1" parent="ieoLBsuvX7PxbXdkCon5-71">
          <mxGeometry y="83" width="110" height="27" as="geometry" />
        </mxCell>
        <mxCell id="ieoLBsuvX7PxbXdkCon5-88" value="" style="shape=partialRectangle;html=1;whiteSpace=wrap;connectable=0;strokeColor=inherit;overflow=hidden;fillColor=none;top=0;left=0;bottom=0;right=0;pointerEvents=1;" vertex="1" parent="ieoLBsuvX7PxbXdkCon5-87">
          <mxGeometry width="28" height="27" as="geometry">
            <mxRectangle width="28" height="27" as="alternateBounds" />
          </mxGeometry>
        </mxCell>
        <mxCell id="ieoLBsuvX7PxbXdkCon5-89" value="" style="shape=partialRectangle;html=1;whiteSpace=wrap;connectable=0;strokeColor=inherit;overflow=hidden;fillColor=none;top=0;left=0;bottom=0;right=0;pointerEvents=1;" vertex="1" parent="ieoLBsuvX7PxbXdkCon5-87">
          <mxGeometry x="28" width="27" height="27" as="geometry">
            <mxRectangle width="27" height="27" as="alternateBounds" />
          </mxGeometry>
        </mxCell>
        <mxCell id="ieoLBsuvX7PxbXdkCon5-90" value="" style="shape=partialRectangle;html=1;whiteSpace=wrap;connectable=0;strokeColor=inherit;overflow=hidden;fillColor=none;top=0;left=0;bottom=0;right=0;pointerEvents=1;" vertex="1" parent="ieoLBsuvX7PxbXdkCon5-87">
          <mxGeometry x="55" width="28" height="27" as="geometry">
            <mxRectangle width="28" height="27" as="alternateBounds" />
          </mxGeometry>
        </mxCell>
        <mxCell id="ieoLBsuvX7PxbXdkCon5-91" value="" style="shape=partialRectangle;html=1;whiteSpace=wrap;connectable=0;strokeColor=inherit;overflow=hidden;fillColor=none;top=0;left=0;bottom=0;right=0;pointerEvents=1;" vertex="1" parent="ieoLBsuvX7PxbXdkCon5-87">
          <mxGeometry x="83" width="27" height="27" as="geometry">
            <mxRectangle width="27" height="27" as="alternateBounds" />
          </mxGeometry>
        </mxCell>
        <mxCell id="ieoLBsuvX7PxbXdkCon5-93" value="" style="shape=table;startSize=0;container=1;collapsible=0;childLayout=tableLayout;" vertex="1" parent="1">
          <mxGeometry x="640" y="40" width="110" height="110" as="geometry" />
        </mxCell>
        <mxCell id="ieoLBsuvX7PxbXdkCon5-94" value="" style="shape=tableRow;horizontal=0;startSize=0;swimlaneHead=0;swimlaneBody=0;strokeColor=inherit;top=0;left=0;bottom=0;right=0;collapsible=0;dropTarget=0;fillColor=none;points=[[0,0.5],[1,0.5]];portConstraint=eastwest;" vertex="1" parent="ieoLBsuvX7PxbXdkCon5-93">
          <mxGeometry width="110" height="28" as="geometry" />
        </mxCell>
        <mxCell id="ieoLBsuvX7PxbXdkCon5-95" value="" style="shape=partialRectangle;html=1;whiteSpace=wrap;connectable=0;strokeColor=#82b366;overflow=hidden;fillColor=#d5e8d4;top=0;left=0;bottom=0;right=0;pointerEvents=1;" vertex="1" parent="ieoLBsuvX7PxbXdkCon5-94">
          <mxGeometry width="28" height="28" as="geometry">
            <mxRectangle width="28" height="28" as="alternateBounds" />
          </mxGeometry>
        </mxCell>
        <mxCell id="ieoLBsuvX7PxbXdkCon5-96" value="" style="shape=partialRectangle;html=1;whiteSpace=wrap;connectable=0;strokeColor=inherit;overflow=hidden;fillColor=none;top=0;left=0;bottom=0;right=0;pointerEvents=1;" vertex="1" parent="ieoLBsuvX7PxbXdkCon5-94">
          <mxGeometry x="28" width="27" height="28" as="geometry">
            <mxRectangle width="27" height="28" as="alternateBounds" />
          </mxGeometry>
        </mxCell>
        <mxCell id="ieoLBsuvX7PxbXdkCon5-97" value="" style="shape=partialRectangle;html=1;whiteSpace=wrap;connectable=0;strokeColor=inherit;overflow=hidden;fillColor=none;top=0;left=0;bottom=0;right=0;pointerEvents=1;" vertex="1" parent="ieoLBsuvX7PxbXdkCon5-94">
          <mxGeometry x="55" width="28" height="28" as="geometry">
            <mxRectangle width="28" height="28" as="alternateBounds" />
          </mxGeometry>
        </mxCell>
        <mxCell id="ieoLBsuvX7PxbXdkCon5-98" value="" style="shape=partialRectangle;html=1;whiteSpace=wrap;connectable=0;strokeColor=inherit;overflow=hidden;fillColor=none;top=0;left=0;bottom=0;right=0;pointerEvents=1;" vertex="1" parent="ieoLBsuvX7PxbXdkCon5-94">
          <mxGeometry x="83" width="27" height="28" as="geometry">
            <mxRectangle width="27" height="28" as="alternateBounds" />
          </mxGeometry>
        </mxCell>
        <mxCell id="ieoLBsuvX7PxbXdkCon5-99" value="" style="shape=tableRow;horizontal=0;startSize=0;swimlaneHead=0;swimlaneBody=0;strokeColor=inherit;top=0;left=0;bottom=0;right=0;collapsible=0;dropTarget=0;fillColor=none;points=[[0,0.5],[1,0.5]];portConstraint=eastwest;" vertex="1" parent="ieoLBsuvX7PxbXdkCon5-93">
          <mxGeometry y="28" width="110" height="27" as="geometry" />
        </mxCell>
        <mxCell id="ieoLBsuvX7PxbXdkCon5-100" value="" style="shape=partialRectangle;html=1;whiteSpace=wrap;connectable=0;strokeColor=#82b366;overflow=hidden;fillColor=#d5e8d4;top=0;left=0;bottom=0;right=0;pointerEvents=1;" vertex="1" parent="ieoLBsuvX7PxbXdkCon5-99">
          <mxGeometry width="28" height="27" as="geometry">
            <mxRectangle width="28" height="27" as="alternateBounds" />
          </mxGeometry>
        </mxCell>
        <mxCell id="ieoLBsuvX7PxbXdkCon5-101" value="" style="shape=partialRectangle;html=1;whiteSpace=wrap;connectable=0;strokeColor=inherit;overflow=hidden;fillColor=none;top=0;left=0;bottom=0;right=0;pointerEvents=1;" vertex="1" parent="ieoLBsuvX7PxbXdkCon5-99">
          <mxGeometry x="28" width="27" height="27" as="geometry">
            <mxRectangle width="27" height="27" as="alternateBounds" />
          </mxGeometry>
        </mxCell>
        <mxCell id="ieoLBsuvX7PxbXdkCon5-102" value="" style="shape=partialRectangle;html=1;whiteSpace=wrap;connectable=0;strokeColor=inherit;overflow=hidden;fillColor=none;top=0;left=0;bottom=0;right=0;pointerEvents=1;" vertex="1" parent="ieoLBsuvX7PxbXdkCon5-99">
          <mxGeometry x="55" width="28" height="27" as="geometry">
            <mxRectangle width="28" height="27" as="alternateBounds" />
          </mxGeometry>
        </mxCell>
        <mxCell id="ieoLBsuvX7PxbXdkCon5-103" value="" style="shape=partialRectangle;html=1;whiteSpace=wrap;connectable=0;strokeColor=inherit;overflow=hidden;fillColor=none;top=0;left=0;bottom=0;right=0;pointerEvents=1;" vertex="1" parent="ieoLBsuvX7PxbXdkCon5-99">
          <mxGeometry x="83" width="27" height="27" as="geometry">
            <mxRectangle width="27" height="27" as="alternateBounds" />
          </mxGeometry>
        </mxCell>
        <mxCell id="ieoLBsuvX7PxbXdkCon5-104" value="" style="shape=tableRow;horizontal=0;startSize=0;swimlaneHead=0;swimlaneBody=0;strokeColor=inherit;top=0;left=0;bottom=0;right=0;collapsible=0;dropTarget=0;fillColor=none;points=[[0,0.5],[1,0.5]];portConstraint=eastwest;" vertex="1" parent="ieoLBsuvX7PxbXdkCon5-93">
          <mxGeometry y="55" width="110" height="28" as="geometry" />
        </mxCell>
        <mxCell id="ieoLBsuvX7PxbXdkCon5-105" value="" style="shape=partialRectangle;html=1;whiteSpace=wrap;connectable=0;strokeColor=#82b366;overflow=hidden;fillColor=#d5e8d4;top=0;left=0;bottom=0;right=0;pointerEvents=1;" vertex="1" parent="ieoLBsuvX7PxbXdkCon5-104">
          <mxGeometry width="28" height="28" as="geometry">
            <mxRectangle width="28" height="28" as="alternateBounds" />
          </mxGeometry>
        </mxCell>
        <mxCell id="ieoLBsuvX7PxbXdkCon5-106" value="" style="shape=partialRectangle;html=1;whiteSpace=wrap;connectable=0;strokeColor=inherit;overflow=hidden;fillColor=none;top=0;left=0;bottom=0;right=0;pointerEvents=1;" vertex="1" parent="ieoLBsuvX7PxbXdkCon5-104">
          <mxGeometry x="28" width="27" height="28" as="geometry">
            <mxRectangle width="27" height="28" as="alternateBounds" />
          </mxGeometry>
        </mxCell>
        <mxCell id="ieoLBsuvX7PxbXdkCon5-107" value="" style="shape=partialRectangle;html=1;whiteSpace=wrap;connectable=0;strokeColor=inherit;overflow=hidden;fillColor=none;top=0;left=0;bottom=0;right=0;pointerEvents=1;" vertex="1" parent="ieoLBsuvX7PxbXdkCon5-104">
          <mxGeometry x="55" width="28" height="28" as="geometry">
            <mxRectangle width="28" height="28" as="alternateBounds" />
          </mxGeometry>
        </mxCell>
        <mxCell id="ieoLBsuvX7PxbXdkCon5-108" value="" style="shape=partialRectangle;html=1;whiteSpace=wrap;connectable=0;strokeColor=inherit;overflow=hidden;fillColor=none;top=0;left=0;bottom=0;right=0;pointerEvents=1;" vertex="1" parent="ieoLBsuvX7PxbXdkCon5-104">
          <mxGeometry x="83" width="27" height="28" as="geometry">
            <mxRectangle width="27" height="28" as="alternateBounds" />
          </mxGeometry>
        </mxCell>
        <mxCell id="ieoLBsuvX7PxbXdkCon5-109" value="" style="shape=tableRow;horizontal=0;startSize=0;swimlaneHead=0;swimlaneBody=0;strokeColor=inherit;top=0;left=0;bottom=0;right=0;collapsible=0;dropTarget=0;fillColor=none;points=[[0,0.5],[1,0.5]];portConstraint=eastwest;" vertex="1" parent="ieoLBsuvX7PxbXdkCon5-93">
          <mxGeometry y="83" width="110" height="27" as="geometry" />
        </mxCell>
        <mxCell id="ieoLBsuvX7PxbXdkCon5-110" value="" style="shape=partialRectangle;html=1;whiteSpace=wrap;connectable=0;strokeColor=#82b366;overflow=hidden;fillColor=#d5e8d4;top=0;left=0;bottom=0;right=0;pointerEvents=1;" vertex="1" parent="ieoLBsuvX7PxbXdkCon5-109">
          <mxGeometry width="28" height="27" as="geometry">
            <mxRectangle width="28" height="27" as="alternateBounds" />
          </mxGeometry>
        </mxCell>
        <mxCell id="ieoLBsuvX7PxbXdkCon5-111" value="" style="shape=partialRectangle;html=1;whiteSpace=wrap;connectable=0;strokeColor=inherit;overflow=hidden;fillColor=none;top=0;left=0;bottom=0;right=0;pointerEvents=1;" vertex="1" parent="ieoLBsuvX7PxbXdkCon5-109">
          <mxGeometry x="28" width="27" height="27" as="geometry">
            <mxRectangle width="27" height="27" as="alternateBounds" />
          </mxGeometry>
        </mxCell>
        <mxCell id="ieoLBsuvX7PxbXdkCon5-112" value="" style="shape=partialRectangle;html=1;whiteSpace=wrap;connectable=0;strokeColor=inherit;overflow=hidden;fillColor=none;top=0;left=0;bottom=0;right=0;pointerEvents=1;" vertex="1" parent="ieoLBsuvX7PxbXdkCon5-109">
          <mxGeometry x="55" width="28" height="27" as="geometry">
            <mxRectangle width="28" height="27" as="alternateBounds" />
          </mxGeometry>
        </mxCell>
        <mxCell id="ieoLBsuvX7PxbXdkCon5-113" value="" style="shape=partialRectangle;html=1;whiteSpace=wrap;connectable=0;strokeColor=inherit;overflow=hidden;fillColor=none;top=0;left=0;bottom=0;right=0;pointerEvents=1;" vertex="1" parent="ieoLBsuvX7PxbXdkCon5-109">
          <mxGeometry x="83" width="27" height="27" as="geometry">
            <mxRectangle width="27" height="27" as="alternateBounds" />
          </mxGeometry>
        </mxCell>
        <mxCell id="ieoLBsuvX7PxbXdkCon5-115" value="" style="edgeStyle=orthogonalEdgeStyle;rounded=0;orthogonalLoop=1;jettySize=auto;html=1;" edge="1" parent="1" source="ieoLBsuvX7PxbXdkCon5-116" target="ieoLBsuvX7PxbXdkCon5-138">
          <mxGeometry relative="1" as="geometry" />
        </mxCell>
        <mxCell id="ieoLBsuvX7PxbXdkCon5-116" value="" style="shape=table;startSize=0;container=1;collapsible=0;childLayout=tableLayout;" vertex="1" parent="1">
          <mxGeometry x="40" y="280" width="110" height="110" as="geometry" />
        </mxCell>
        <mxCell id="ieoLBsuvX7PxbXdkCon5-117" value="" style="shape=tableRow;horizontal=0;startSize=0;swimlaneHead=0;swimlaneBody=0;strokeColor=inherit;top=0;left=0;bottom=0;right=0;collapsible=0;dropTarget=0;fillColor=none;points=[[0,0.5],[1,0.5]];portConstraint=eastwest;" vertex="1" parent="ieoLBsuvX7PxbXdkCon5-116">
          <mxGeometry width="110" height="28" as="geometry" />
        </mxCell>
        <mxCell id="ieoLBsuvX7PxbXdkCon5-118" value="" style="shape=partialRectangle;html=1;whiteSpace=wrap;connectable=0;strokeColor=#82b366;overflow=hidden;fillColor=#d5e8d4;top=0;left=0;bottom=0;right=0;pointerEvents=1;" vertex="1" parent="ieoLBsuvX7PxbXdkCon5-117">
          <mxGeometry width="28" height="28" as="geometry">
            <mxRectangle width="28" height="28" as="alternateBounds" />
          </mxGeometry>
        </mxCell>
        <mxCell id="ieoLBsuvX7PxbXdkCon5-119" value="" style="shape=partialRectangle;html=1;whiteSpace=wrap;connectable=0;strokeColor=inherit;overflow=hidden;fillColor=none;top=0;left=0;bottom=0;right=0;pointerEvents=1;" vertex="1" parent="ieoLBsuvX7PxbXdkCon5-117">
          <mxGeometry x="28" width="27" height="28" as="geometry">
            <mxRectangle width="27" height="28" as="alternateBounds" />
          </mxGeometry>
        </mxCell>
        <mxCell id="ieoLBsuvX7PxbXdkCon5-120" value="" style="shape=partialRectangle;html=1;whiteSpace=wrap;connectable=0;strokeColor=inherit;overflow=hidden;fillColor=none;top=0;left=0;bottom=0;right=0;pointerEvents=1;" vertex="1" parent="ieoLBsuvX7PxbXdkCon5-117">
          <mxGeometry x="55" width="28" height="28" as="geometry">
            <mxRectangle width="28" height="28" as="alternateBounds" />
          </mxGeometry>
        </mxCell>
        <mxCell id="ieoLBsuvX7PxbXdkCon5-121" value="" style="shape=partialRectangle;html=1;whiteSpace=wrap;connectable=0;strokeColor=inherit;overflow=hidden;fillColor=none;top=0;left=0;bottom=0;right=0;pointerEvents=1;" vertex="1" parent="ieoLBsuvX7PxbXdkCon5-117">
          <mxGeometry x="83" width="27" height="28" as="geometry">
            <mxRectangle width="27" height="28" as="alternateBounds" />
          </mxGeometry>
        </mxCell>
        <mxCell id="ieoLBsuvX7PxbXdkCon5-122" value="" style="shape=tableRow;horizontal=0;startSize=0;swimlaneHead=0;swimlaneBody=0;strokeColor=inherit;top=0;left=0;bottom=0;right=0;collapsible=0;dropTarget=0;fillColor=none;points=[[0,0.5],[1,0.5]];portConstraint=eastwest;" vertex="1" parent="ieoLBsuvX7PxbXdkCon5-116">
          <mxGeometry y="28" width="110" height="27" as="geometry" />
        </mxCell>
        <mxCell id="ieoLBsuvX7PxbXdkCon5-123" value="" style="shape=partialRectangle;html=1;whiteSpace=wrap;connectable=0;strokeColor=#82b366;overflow=hidden;fillColor=#d5e8d4;top=0;left=0;bottom=0;right=0;pointerEvents=1;" vertex="1" parent="ieoLBsuvX7PxbXdkCon5-122">
          <mxGeometry width="28" height="27" as="geometry">
            <mxRectangle width="28" height="27" as="alternateBounds" />
          </mxGeometry>
        </mxCell>
        <mxCell id="ieoLBsuvX7PxbXdkCon5-124" value="" style="shape=partialRectangle;html=1;whiteSpace=wrap;connectable=0;strokeColor=inherit;overflow=hidden;fillColor=none;top=0;left=0;bottom=0;right=0;pointerEvents=1;" vertex="1" parent="ieoLBsuvX7PxbXdkCon5-122">
          <mxGeometry x="28" width="27" height="27" as="geometry">
            <mxRectangle width="27" height="27" as="alternateBounds" />
          </mxGeometry>
        </mxCell>
        <mxCell id="ieoLBsuvX7PxbXdkCon5-125" value="" style="shape=partialRectangle;html=1;whiteSpace=wrap;connectable=0;strokeColor=inherit;overflow=hidden;fillColor=none;top=0;left=0;bottom=0;right=0;pointerEvents=1;" vertex="1" parent="ieoLBsuvX7PxbXdkCon5-122">
          <mxGeometry x="55" width="28" height="27" as="geometry">
            <mxRectangle width="28" height="27" as="alternateBounds" />
          </mxGeometry>
        </mxCell>
        <mxCell id="ieoLBsuvX7PxbXdkCon5-126" value="" style="shape=partialRectangle;html=1;whiteSpace=wrap;connectable=0;strokeColor=inherit;overflow=hidden;fillColor=none;top=0;left=0;bottom=0;right=0;pointerEvents=1;" vertex="1" parent="ieoLBsuvX7PxbXdkCon5-122">
          <mxGeometry x="83" width="27" height="27" as="geometry">
            <mxRectangle width="27" height="27" as="alternateBounds" />
          </mxGeometry>
        </mxCell>
        <mxCell id="ieoLBsuvX7PxbXdkCon5-127" value="" style="shape=tableRow;horizontal=0;startSize=0;swimlaneHead=0;swimlaneBody=0;strokeColor=inherit;top=0;left=0;bottom=0;right=0;collapsible=0;dropTarget=0;fillColor=none;points=[[0,0.5],[1,0.5]];portConstraint=eastwest;" vertex="1" parent="ieoLBsuvX7PxbXdkCon5-116">
          <mxGeometry y="55" width="110" height="28" as="geometry" />
        </mxCell>
        <mxCell id="ieoLBsuvX7PxbXdkCon5-128" value="" style="shape=partialRectangle;html=1;whiteSpace=wrap;connectable=0;strokeColor=#82b366;overflow=hidden;fillColor=#d5e8d4;top=0;left=0;bottom=0;right=0;pointerEvents=1;" vertex="1" parent="ieoLBsuvX7PxbXdkCon5-127">
          <mxGeometry width="28" height="28" as="geometry">
            <mxRectangle width="28" height="28" as="alternateBounds" />
          </mxGeometry>
        </mxCell>
        <mxCell id="ieoLBsuvX7PxbXdkCon5-129" value="" style="shape=partialRectangle;html=1;whiteSpace=wrap;connectable=0;strokeColor=inherit;overflow=hidden;fillColor=none;top=0;left=0;bottom=0;right=0;pointerEvents=1;" vertex="1" parent="ieoLBsuvX7PxbXdkCon5-127">
          <mxGeometry x="28" width="27" height="28" as="geometry">
            <mxRectangle width="27" height="28" as="alternateBounds" />
          </mxGeometry>
        </mxCell>
        <mxCell id="ieoLBsuvX7PxbXdkCon5-130" value="" style="shape=partialRectangle;html=1;whiteSpace=wrap;connectable=0;strokeColor=inherit;overflow=hidden;fillColor=none;top=0;left=0;bottom=0;right=0;pointerEvents=1;" vertex="1" parent="ieoLBsuvX7PxbXdkCon5-127">
          <mxGeometry x="55" width="28" height="28" as="geometry">
            <mxRectangle width="28" height="28" as="alternateBounds" />
          </mxGeometry>
        </mxCell>
        <mxCell id="ieoLBsuvX7PxbXdkCon5-131" value="" style="shape=partialRectangle;html=1;whiteSpace=wrap;connectable=0;strokeColor=inherit;overflow=hidden;fillColor=none;top=0;left=0;bottom=0;right=0;pointerEvents=1;" vertex="1" parent="ieoLBsuvX7PxbXdkCon5-127">
          <mxGeometry x="83" width="27" height="28" as="geometry">
            <mxRectangle width="27" height="28" as="alternateBounds" />
          </mxGeometry>
        </mxCell>
        <mxCell id="ieoLBsuvX7PxbXdkCon5-132" value="" style="shape=tableRow;horizontal=0;startSize=0;swimlaneHead=0;swimlaneBody=0;strokeColor=inherit;top=0;left=0;bottom=0;right=0;collapsible=0;dropTarget=0;fillColor=none;points=[[0,0.5],[1,0.5]];portConstraint=eastwest;" vertex="1" parent="ieoLBsuvX7PxbXdkCon5-116">
          <mxGeometry y="83" width="110" height="27" as="geometry" />
        </mxCell>
        <mxCell id="ieoLBsuvX7PxbXdkCon5-133" value="" style="shape=partialRectangle;html=1;whiteSpace=wrap;connectable=0;strokeColor=#82b366;overflow=hidden;fillColor=#d5e8d4;top=0;left=0;bottom=0;right=0;pointerEvents=1;" vertex="1" parent="ieoLBsuvX7PxbXdkCon5-132">
          <mxGeometry width="28" height="27" as="geometry">
            <mxRectangle width="28" height="27" as="alternateBounds" />
          </mxGeometry>
        </mxCell>
        <mxCell id="ieoLBsuvX7PxbXdkCon5-134" value="" style="shape=partialRectangle;html=1;whiteSpace=wrap;connectable=0;strokeColor=inherit;overflow=hidden;fillColor=none;top=0;left=0;bottom=0;right=0;pointerEvents=1;" vertex="1" parent="ieoLBsuvX7PxbXdkCon5-132">
          <mxGeometry x="28" width="27" height="27" as="geometry">
            <mxRectangle width="27" height="27" as="alternateBounds" />
          </mxGeometry>
        </mxCell>
        <mxCell id="ieoLBsuvX7PxbXdkCon5-135" value="" style="shape=partialRectangle;html=1;whiteSpace=wrap;connectable=0;strokeColor=inherit;overflow=hidden;fillColor=none;top=0;left=0;bottom=0;right=0;pointerEvents=1;" vertex="1" parent="ieoLBsuvX7PxbXdkCon5-132">
          <mxGeometry x="55" width="28" height="27" as="geometry">
            <mxRectangle width="28" height="27" as="alternateBounds" />
          </mxGeometry>
        </mxCell>
        <mxCell id="ieoLBsuvX7PxbXdkCon5-136" value="" style="shape=partialRectangle;html=1;whiteSpace=wrap;connectable=0;strokeColor=inherit;overflow=hidden;fillColor=none;top=0;left=0;bottom=0;right=0;pointerEvents=1;" vertex="1" parent="ieoLBsuvX7PxbXdkCon5-132">
          <mxGeometry x="83" width="27" height="27" as="geometry">
            <mxRectangle width="27" height="27" as="alternateBounds" />
          </mxGeometry>
        </mxCell>
        <mxCell id="ieoLBsuvX7PxbXdkCon5-137" value="" style="edgeStyle=orthogonalEdgeStyle;rounded=0;orthogonalLoop=1;jettySize=auto;html=1;" edge="1" parent="1" source="ieoLBsuvX7PxbXdkCon5-138" target="ieoLBsuvX7PxbXdkCon5-160">
          <mxGeometry relative="1" as="geometry" />
        </mxCell>
        <mxCell id="ieoLBsuvX7PxbXdkCon5-138" value="" style="shape=table;startSize=0;container=1;collapsible=0;childLayout=tableLayout;" vertex="1" parent="1">
          <mxGeometry x="240" y="280" width="110" height="110" as="geometry" />
        </mxCell>
        <mxCell id="ieoLBsuvX7PxbXdkCon5-139" value="" style="shape=tableRow;horizontal=0;startSize=0;swimlaneHead=0;swimlaneBody=0;strokeColor=inherit;top=0;left=0;bottom=0;right=0;collapsible=0;dropTarget=0;fillColor=none;points=[[0,0.5],[1,0.5]];portConstraint=eastwest;" vertex="1" parent="ieoLBsuvX7PxbXdkCon5-138">
          <mxGeometry width="110" height="28" as="geometry" />
        </mxCell>
        <mxCell id="ieoLBsuvX7PxbXdkCon5-140" value="" style="shape=partialRectangle;html=1;whiteSpace=wrap;connectable=0;strokeColor=#82b366;overflow=hidden;fillColor=#d5e8d4;top=0;left=0;bottom=0;right=0;pointerEvents=1;" vertex="1" parent="ieoLBsuvX7PxbXdkCon5-139">
          <mxGeometry width="28" height="28" as="geometry">
            <mxRectangle width="28" height="28" as="alternateBounds" />
          </mxGeometry>
        </mxCell>
        <mxCell id="ieoLBsuvX7PxbXdkCon5-141" value="" style="shape=partialRectangle;html=1;whiteSpace=wrap;connectable=0;strokeColor=inherit;overflow=hidden;fillColor=none;top=0;left=0;bottom=0;right=0;pointerEvents=1;" vertex="1" parent="ieoLBsuvX7PxbXdkCon5-139">
          <mxGeometry x="28" width="27" height="28" as="geometry">
            <mxRectangle width="27" height="28" as="alternateBounds" />
          </mxGeometry>
        </mxCell>
        <mxCell id="ieoLBsuvX7PxbXdkCon5-142" value="" style="shape=partialRectangle;html=1;whiteSpace=wrap;connectable=0;strokeColor=inherit;overflow=hidden;fillColor=none;top=0;left=0;bottom=0;right=0;pointerEvents=1;" vertex="1" parent="ieoLBsuvX7PxbXdkCon5-139">
          <mxGeometry x="55" width="28" height="28" as="geometry">
            <mxRectangle width="28" height="28" as="alternateBounds" />
          </mxGeometry>
        </mxCell>
        <mxCell id="ieoLBsuvX7PxbXdkCon5-143" value="" style="shape=partialRectangle;html=1;whiteSpace=wrap;connectable=0;strokeColor=inherit;overflow=hidden;fillColor=none;top=0;left=0;bottom=0;right=0;pointerEvents=1;" vertex="1" parent="ieoLBsuvX7PxbXdkCon5-139">
          <mxGeometry x="83" width="27" height="28" as="geometry">
            <mxRectangle width="27" height="28" as="alternateBounds" />
          </mxGeometry>
        </mxCell>
        <mxCell id="ieoLBsuvX7PxbXdkCon5-144" value="" style="shape=tableRow;horizontal=0;startSize=0;swimlaneHead=0;swimlaneBody=0;strokeColor=inherit;top=0;left=0;bottom=0;right=0;collapsible=0;dropTarget=0;fillColor=none;points=[[0,0.5],[1,0.5]];portConstraint=eastwest;" vertex="1" parent="ieoLBsuvX7PxbXdkCon5-138">
          <mxGeometry y="28" width="110" height="27" as="geometry" />
        </mxCell>
        <mxCell id="ieoLBsuvX7PxbXdkCon5-145" value="" style="shape=partialRectangle;html=1;whiteSpace=wrap;connectable=0;strokeColor=#82b366;overflow=hidden;fillColor=#d5e8d4;top=0;left=0;bottom=0;right=0;pointerEvents=1;" vertex="1" parent="ieoLBsuvX7PxbXdkCon5-144">
          <mxGeometry width="28" height="27" as="geometry">
            <mxRectangle width="28" height="27" as="alternateBounds" />
          </mxGeometry>
        </mxCell>
        <mxCell id="ieoLBsuvX7PxbXdkCon5-146" value="" style="shape=partialRectangle;html=1;whiteSpace=wrap;connectable=0;strokeColor=inherit;overflow=hidden;fillColor=none;top=0;left=0;bottom=0;right=0;pointerEvents=1;" vertex="1" parent="ieoLBsuvX7PxbXdkCon5-144">
          <mxGeometry x="28" width="27" height="27" as="geometry">
            <mxRectangle width="27" height="27" as="alternateBounds" />
          </mxGeometry>
        </mxCell>
        <mxCell id="ieoLBsuvX7PxbXdkCon5-147" value="" style="shape=partialRectangle;html=1;whiteSpace=wrap;connectable=0;strokeColor=inherit;overflow=hidden;fillColor=none;top=0;left=0;bottom=0;right=0;pointerEvents=1;" vertex="1" parent="ieoLBsuvX7PxbXdkCon5-144">
          <mxGeometry x="55" width="28" height="27" as="geometry">
            <mxRectangle width="28" height="27" as="alternateBounds" />
          </mxGeometry>
        </mxCell>
        <mxCell id="ieoLBsuvX7PxbXdkCon5-148" value="" style="shape=partialRectangle;html=1;whiteSpace=wrap;connectable=0;strokeColor=inherit;overflow=hidden;fillColor=none;top=0;left=0;bottom=0;right=0;pointerEvents=1;" vertex="1" parent="ieoLBsuvX7PxbXdkCon5-144">
          <mxGeometry x="83" width="27" height="27" as="geometry">
            <mxRectangle width="27" height="27" as="alternateBounds" />
          </mxGeometry>
        </mxCell>
        <mxCell id="ieoLBsuvX7PxbXdkCon5-149" value="" style="shape=tableRow;horizontal=0;startSize=0;swimlaneHead=0;swimlaneBody=0;strokeColor=inherit;top=0;left=0;bottom=0;right=0;collapsible=0;dropTarget=0;fillColor=none;points=[[0,0.5],[1,0.5]];portConstraint=eastwest;" vertex="1" parent="ieoLBsuvX7PxbXdkCon5-138">
          <mxGeometry y="55" width="110" height="28" as="geometry" />
        </mxCell>
        <mxCell id="ieoLBsuvX7PxbXdkCon5-150" value="" style="shape=partialRectangle;html=1;whiteSpace=wrap;connectable=0;strokeColor=#82b366;overflow=hidden;fillColor=#d5e8d4;top=0;left=0;bottom=0;right=0;pointerEvents=1;" vertex="1" parent="ieoLBsuvX7PxbXdkCon5-149">
          <mxGeometry width="28" height="28" as="geometry">
            <mxRectangle width="28" height="28" as="alternateBounds" />
          </mxGeometry>
        </mxCell>
        <mxCell id="ieoLBsuvX7PxbXdkCon5-151" value="" style="shape=partialRectangle;html=1;whiteSpace=wrap;connectable=0;strokeColor=inherit;overflow=hidden;fillColor=none;top=0;left=0;bottom=0;right=0;pointerEvents=1;" vertex="1" parent="ieoLBsuvX7PxbXdkCon5-149">
          <mxGeometry x="28" width="27" height="28" as="geometry">
            <mxRectangle width="27" height="28" as="alternateBounds" />
          </mxGeometry>
        </mxCell>
        <mxCell id="ieoLBsuvX7PxbXdkCon5-152" value="" style="shape=partialRectangle;html=1;whiteSpace=wrap;connectable=0;strokeColor=inherit;overflow=hidden;fillColor=none;top=0;left=0;bottom=0;right=0;pointerEvents=1;" vertex="1" parent="ieoLBsuvX7PxbXdkCon5-149">
          <mxGeometry x="55" width="28" height="28" as="geometry">
            <mxRectangle width="28" height="28" as="alternateBounds" />
          </mxGeometry>
        </mxCell>
        <mxCell id="ieoLBsuvX7PxbXdkCon5-153" value="" style="shape=partialRectangle;html=1;whiteSpace=wrap;connectable=0;strokeColor=inherit;overflow=hidden;fillColor=none;top=0;left=0;bottom=0;right=0;pointerEvents=1;" vertex="1" parent="ieoLBsuvX7PxbXdkCon5-149">
          <mxGeometry x="83" width="27" height="28" as="geometry">
            <mxRectangle width="27" height="28" as="alternateBounds" />
          </mxGeometry>
        </mxCell>
        <mxCell id="ieoLBsuvX7PxbXdkCon5-154" value="" style="shape=tableRow;horizontal=0;startSize=0;swimlaneHead=0;swimlaneBody=0;strokeColor=inherit;top=0;left=0;bottom=0;right=0;collapsible=0;dropTarget=0;fillColor=none;points=[[0,0.5],[1,0.5]];portConstraint=eastwest;" vertex="1" parent="ieoLBsuvX7PxbXdkCon5-138">
          <mxGeometry y="83" width="110" height="27" as="geometry" />
        </mxCell>
        <mxCell id="ieoLBsuvX7PxbXdkCon5-155" value="" style="shape=partialRectangle;html=1;whiteSpace=wrap;connectable=0;strokeColor=#82b366;overflow=hidden;fillColor=#d5e8d4;top=0;left=0;bottom=0;right=0;pointerEvents=1;" vertex="1" parent="ieoLBsuvX7PxbXdkCon5-154">
          <mxGeometry width="28" height="27" as="geometry">
            <mxRectangle width="28" height="27" as="alternateBounds" />
          </mxGeometry>
        </mxCell>
        <mxCell id="ieoLBsuvX7PxbXdkCon5-156" value="" style="shape=partialRectangle;html=1;whiteSpace=wrap;connectable=0;strokeColor=inherit;overflow=hidden;fillColor=none;top=0;left=0;bottom=0;right=0;pointerEvents=1;" vertex="1" parent="ieoLBsuvX7PxbXdkCon5-154">
          <mxGeometry x="28" width="27" height="27" as="geometry">
            <mxRectangle width="27" height="27" as="alternateBounds" />
          </mxGeometry>
        </mxCell>
        <mxCell id="ieoLBsuvX7PxbXdkCon5-157" value="" style="shape=partialRectangle;html=1;whiteSpace=wrap;connectable=0;strokeColor=inherit;overflow=hidden;fillColor=none;top=0;left=0;bottom=0;right=0;pointerEvents=1;" vertex="1" parent="ieoLBsuvX7PxbXdkCon5-154">
          <mxGeometry x="55" width="28" height="27" as="geometry">
            <mxRectangle width="28" height="27" as="alternateBounds" />
          </mxGeometry>
        </mxCell>
        <mxCell id="ieoLBsuvX7PxbXdkCon5-158" value="" style="shape=partialRectangle;html=1;whiteSpace=wrap;connectable=0;strokeColor=inherit;overflow=hidden;fillColor=none;top=0;left=0;bottom=0;right=0;pointerEvents=1;" vertex="1" parent="ieoLBsuvX7PxbXdkCon5-154">
          <mxGeometry x="83" width="27" height="27" as="geometry">
            <mxRectangle width="27" height="27" as="alternateBounds" />
          </mxGeometry>
        </mxCell>
        <mxCell id="ieoLBsuvX7PxbXdkCon5-159" value="" style="edgeStyle=orthogonalEdgeStyle;rounded=0;orthogonalLoop=1;jettySize=auto;html=1;" edge="1" parent="1" source="ieoLBsuvX7PxbXdkCon5-160" target="ieoLBsuvX7PxbXdkCon5-181">
          <mxGeometry relative="1" as="geometry" />
        </mxCell>
        <mxCell id="ieoLBsuvX7PxbXdkCon5-160" value="" style="shape=table;startSize=0;container=1;collapsible=0;childLayout=tableLayout;" vertex="1" parent="1">
          <mxGeometry x="440" y="280" width="110" height="110" as="geometry" />
        </mxCell>
        <mxCell id="ieoLBsuvX7PxbXdkCon5-161" value="" style="shape=tableRow;horizontal=0;startSize=0;swimlaneHead=0;swimlaneBody=0;strokeColor=inherit;top=0;left=0;bottom=0;right=0;collapsible=0;dropTarget=0;fillColor=none;points=[[0,0.5],[1,0.5]];portConstraint=eastwest;" vertex="1" parent="ieoLBsuvX7PxbXdkCon5-160">
          <mxGeometry width="110" height="28" as="geometry" />
        </mxCell>
        <mxCell id="ieoLBsuvX7PxbXdkCon5-162" value="" style="shape=partialRectangle;html=1;whiteSpace=wrap;connectable=0;strokeColor=#82b366;overflow=hidden;fillColor=#d5e8d4;top=0;left=0;bottom=0;right=0;pointerEvents=1;" vertex="1" parent="ieoLBsuvX7PxbXdkCon5-161">
          <mxGeometry width="28" height="28" as="geometry">
            <mxRectangle width="28" height="28" as="alternateBounds" />
          </mxGeometry>
        </mxCell>
        <mxCell id="ieoLBsuvX7PxbXdkCon5-163" value="" style="shape=partialRectangle;html=1;whiteSpace=wrap;connectable=0;strokeColor=inherit;overflow=hidden;fillColor=none;top=0;left=0;bottom=0;right=0;pointerEvents=1;" vertex="1" parent="ieoLBsuvX7PxbXdkCon5-161">
          <mxGeometry x="28" width="27" height="28" as="geometry">
            <mxRectangle width="27" height="28" as="alternateBounds" />
          </mxGeometry>
        </mxCell>
        <mxCell id="ieoLBsuvX7PxbXdkCon5-164" value="" style="shape=partialRectangle;html=1;whiteSpace=wrap;connectable=0;strokeColor=inherit;overflow=hidden;fillColor=none;top=0;left=0;bottom=0;right=0;pointerEvents=1;" vertex="1" parent="ieoLBsuvX7PxbXdkCon5-161">
          <mxGeometry x="55" width="28" height="28" as="geometry">
            <mxRectangle width="28" height="28" as="alternateBounds" />
          </mxGeometry>
        </mxCell>
        <mxCell id="ieoLBsuvX7PxbXdkCon5-165" value="" style="shape=partialRectangle;html=1;whiteSpace=wrap;connectable=0;strokeColor=inherit;overflow=hidden;fillColor=none;top=0;left=0;bottom=0;right=0;pointerEvents=1;" vertex="1" parent="ieoLBsuvX7PxbXdkCon5-161">
          <mxGeometry x="83" width="27" height="28" as="geometry">
            <mxRectangle width="27" height="28" as="alternateBounds" />
          </mxGeometry>
        </mxCell>
        <mxCell id="ieoLBsuvX7PxbXdkCon5-166" value="" style="shape=tableRow;horizontal=0;startSize=0;swimlaneHead=0;swimlaneBody=0;strokeColor=inherit;top=0;left=0;bottom=0;right=0;collapsible=0;dropTarget=0;fillColor=none;points=[[0,0.5],[1,0.5]];portConstraint=eastwest;" vertex="1" parent="ieoLBsuvX7PxbXdkCon5-160">
          <mxGeometry y="28" width="110" height="27" as="geometry" />
        </mxCell>
        <mxCell id="ieoLBsuvX7PxbXdkCon5-167" value="" style="shape=partialRectangle;html=1;whiteSpace=wrap;connectable=0;strokeColor=inherit;overflow=hidden;fillColor=none;top=0;left=0;bottom=0;right=0;pointerEvents=1;" vertex="1" parent="ieoLBsuvX7PxbXdkCon5-166">
          <mxGeometry width="28" height="27" as="geometry">
            <mxRectangle width="28" height="27" as="alternateBounds" />
          </mxGeometry>
        </mxCell>
        <mxCell id="ieoLBsuvX7PxbXdkCon5-168" value="" style="shape=partialRectangle;html=1;whiteSpace=wrap;connectable=0;strokeColor=inherit;overflow=hidden;fillColor=none;top=0;left=0;bottom=0;right=0;pointerEvents=1;" vertex="1" parent="ieoLBsuvX7PxbXdkCon5-166">
          <mxGeometry x="28" width="27" height="27" as="geometry">
            <mxRectangle width="27" height="27" as="alternateBounds" />
          </mxGeometry>
        </mxCell>
        <mxCell id="ieoLBsuvX7PxbXdkCon5-169" value="" style="shape=partialRectangle;html=1;whiteSpace=wrap;connectable=0;strokeColor=inherit;overflow=hidden;fillColor=none;top=0;left=0;bottom=0;right=0;pointerEvents=1;" vertex="1" parent="ieoLBsuvX7PxbXdkCon5-166">
          <mxGeometry x="55" width="28" height="27" as="geometry">
            <mxRectangle width="28" height="27" as="alternateBounds" />
          </mxGeometry>
        </mxCell>
        <mxCell id="ieoLBsuvX7PxbXdkCon5-170" value="" style="shape=partialRectangle;html=1;whiteSpace=wrap;connectable=0;strokeColor=#82b366;overflow=hidden;fillColor=#d5e8d4;top=0;left=0;bottom=0;right=0;pointerEvents=1;" vertex="1" parent="ieoLBsuvX7PxbXdkCon5-166">
          <mxGeometry x="83" width="27" height="27" as="geometry">
            <mxRectangle width="27" height="27" as="alternateBounds" />
          </mxGeometry>
        </mxCell>
        <mxCell id="ieoLBsuvX7PxbXdkCon5-171" value="" style="shape=tableRow;horizontal=0;startSize=0;swimlaneHead=0;swimlaneBody=0;strokeColor=inherit;top=0;left=0;bottom=0;right=0;collapsible=0;dropTarget=0;fillColor=none;points=[[0,0.5],[1,0.5]];portConstraint=eastwest;" vertex="1" parent="ieoLBsuvX7PxbXdkCon5-160">
          <mxGeometry y="55" width="110" height="28" as="geometry" />
        </mxCell>
        <mxCell id="ieoLBsuvX7PxbXdkCon5-172" value="" style="shape=partialRectangle;html=1;whiteSpace=wrap;connectable=0;strokeColor=inherit;overflow=hidden;fillColor=none;top=0;left=0;bottom=0;right=0;pointerEvents=1;" vertex="1" parent="ieoLBsuvX7PxbXdkCon5-171">
          <mxGeometry width="28" height="28" as="geometry">
            <mxRectangle width="28" height="28" as="alternateBounds" />
          </mxGeometry>
        </mxCell>
        <mxCell id="ieoLBsuvX7PxbXdkCon5-173" value="" style="shape=partialRectangle;html=1;whiteSpace=wrap;connectable=0;strokeColor=inherit;overflow=hidden;fillColor=none;top=0;left=0;bottom=0;right=0;pointerEvents=1;" vertex="1" parent="ieoLBsuvX7PxbXdkCon5-171">
          <mxGeometry x="28" width="27" height="28" as="geometry">
            <mxRectangle width="27" height="28" as="alternateBounds" />
          </mxGeometry>
        </mxCell>
        <mxCell id="ieoLBsuvX7PxbXdkCon5-174" value="" style="shape=partialRectangle;html=1;whiteSpace=wrap;connectable=0;strokeColor=#82b366;overflow=hidden;fillColor=#d5e8d4;top=0;left=0;bottom=0;right=0;pointerEvents=1;" vertex="1" parent="ieoLBsuvX7PxbXdkCon5-171">
          <mxGeometry x="55" width="28" height="28" as="geometry">
            <mxRectangle width="28" height="28" as="alternateBounds" />
          </mxGeometry>
        </mxCell>
        <mxCell id="ieoLBsuvX7PxbXdkCon5-175" value="" style="shape=partialRectangle;html=1;whiteSpace=wrap;connectable=0;strokeColor=inherit;overflow=hidden;fillColor=none;top=0;left=0;bottom=0;right=0;pointerEvents=1;" vertex="1" parent="ieoLBsuvX7PxbXdkCon5-171">
          <mxGeometry x="83" width="27" height="28" as="geometry">
            <mxRectangle width="27" height="28" as="alternateBounds" />
          </mxGeometry>
        </mxCell>
        <mxCell id="ieoLBsuvX7PxbXdkCon5-176" value="" style="shape=tableRow;horizontal=0;startSize=0;swimlaneHead=0;swimlaneBody=0;strokeColor=inherit;top=0;left=0;bottom=0;right=0;collapsible=0;dropTarget=0;fillColor=none;points=[[0,0.5],[1,0.5]];portConstraint=eastwest;" vertex="1" parent="ieoLBsuvX7PxbXdkCon5-160">
          <mxGeometry y="83" width="110" height="27" as="geometry" />
        </mxCell>
        <mxCell id="ieoLBsuvX7PxbXdkCon5-177" value="" style="shape=partialRectangle;html=1;whiteSpace=wrap;connectable=0;strokeColor=inherit;overflow=hidden;fillColor=none;top=0;left=0;bottom=0;right=0;pointerEvents=1;" vertex="1" parent="ieoLBsuvX7PxbXdkCon5-176">
          <mxGeometry width="28" height="27" as="geometry">
            <mxRectangle width="28" height="27" as="alternateBounds" />
          </mxGeometry>
        </mxCell>
        <mxCell id="ieoLBsuvX7PxbXdkCon5-178" value="" style="shape=partialRectangle;html=1;whiteSpace=wrap;connectable=0;strokeColor=#82b366;overflow=hidden;fillColor=#d5e8d4;top=0;left=0;bottom=0;right=0;pointerEvents=1;" vertex="1" parent="ieoLBsuvX7PxbXdkCon5-176">
          <mxGeometry x="28" width="27" height="27" as="geometry">
            <mxRectangle width="27" height="27" as="alternateBounds" />
          </mxGeometry>
        </mxCell>
        <mxCell id="ieoLBsuvX7PxbXdkCon5-179" value="" style="shape=partialRectangle;html=1;whiteSpace=wrap;connectable=0;strokeColor=inherit;overflow=hidden;fillColor=none;top=0;left=0;bottom=0;right=0;pointerEvents=1;" vertex="1" parent="ieoLBsuvX7PxbXdkCon5-176">
          <mxGeometry x="55" width="28" height="27" as="geometry">
            <mxRectangle width="28" height="27" as="alternateBounds" />
          </mxGeometry>
        </mxCell>
        <mxCell id="ieoLBsuvX7PxbXdkCon5-180" value="" style="shape=partialRectangle;html=1;whiteSpace=wrap;connectable=0;strokeColor=inherit;overflow=hidden;fillColor=none;top=0;left=0;bottom=0;right=0;pointerEvents=1;" vertex="1" parent="ieoLBsuvX7PxbXdkCon5-176">
          <mxGeometry x="83" width="27" height="27" as="geometry">
            <mxRectangle width="27" height="27" as="alternateBounds" />
          </mxGeometry>
        </mxCell>
        <mxCell id="ieoLBsuvX7PxbXdkCon5-181" value="" style="shape=table;startSize=0;container=1;collapsible=0;childLayout=tableLayout;" vertex="1" parent="1">
          <mxGeometry x="640" y="280" width="110" height="110" as="geometry" />
        </mxCell>
        <mxCell id="ieoLBsuvX7PxbXdkCon5-182" value="" style="shape=tableRow;horizontal=0;startSize=0;swimlaneHead=0;swimlaneBody=0;strokeColor=inherit;top=0;left=0;bottom=0;right=0;collapsible=0;dropTarget=0;fillColor=none;points=[[0,0.5],[1,0.5]];portConstraint=eastwest;" vertex="1" parent="ieoLBsuvX7PxbXdkCon5-181">
          <mxGeometry width="110" height="28" as="geometry" />
        </mxCell>
        <mxCell id="ieoLBsuvX7PxbXdkCon5-183" value="" style="shape=partialRectangle;html=1;whiteSpace=wrap;connectable=0;strokeColor=#82b366;overflow=hidden;fillColor=#d5e8d4;top=0;left=0;bottom=0;right=0;pointerEvents=1;" vertex="1" parent="ieoLBsuvX7PxbXdkCon5-182">
          <mxGeometry width="28" height="28" as="geometry">
            <mxRectangle width="28" height="28" as="alternateBounds" />
          </mxGeometry>
        </mxCell>
        <mxCell id="ieoLBsuvX7PxbXdkCon5-184" value="" style="shape=partialRectangle;html=1;whiteSpace=wrap;connectable=0;strokeColor=#82b366;overflow=hidden;fillColor=#d5e8d4;top=0;left=0;bottom=0;right=0;pointerEvents=1;" vertex="1" parent="ieoLBsuvX7PxbXdkCon5-182">
          <mxGeometry x="28" width="27" height="28" as="geometry">
            <mxRectangle width="27" height="28" as="alternateBounds" />
          </mxGeometry>
        </mxCell>
        <mxCell id="ieoLBsuvX7PxbXdkCon5-185" value="" style="shape=partialRectangle;html=1;whiteSpace=wrap;connectable=0;strokeColor=#82b366;overflow=hidden;fillColor=#d5e8d4;top=0;left=0;bottom=0;right=0;pointerEvents=1;" vertex="1" parent="ieoLBsuvX7PxbXdkCon5-182">
          <mxGeometry x="55" width="28" height="28" as="geometry">
            <mxRectangle width="28" height="28" as="alternateBounds" />
          </mxGeometry>
        </mxCell>
        <mxCell id="ieoLBsuvX7PxbXdkCon5-186" value="" style="shape=partialRectangle;html=1;whiteSpace=wrap;connectable=0;strokeColor=#82b366;overflow=hidden;fillColor=#d5e8d4;top=0;left=0;bottom=0;right=0;pointerEvents=1;" vertex="1" parent="ieoLBsuvX7PxbXdkCon5-182">
          <mxGeometry x="83" width="27" height="28" as="geometry">
            <mxRectangle width="27" height="28" as="alternateBounds" />
          </mxGeometry>
        </mxCell>
        <mxCell id="ieoLBsuvX7PxbXdkCon5-187" value="" style="shape=tableRow;horizontal=0;startSize=0;swimlaneHead=0;swimlaneBody=0;strokeColor=inherit;top=0;left=0;bottom=0;right=0;collapsible=0;dropTarget=0;fillColor=none;points=[[0,0.5],[1,0.5]];portConstraint=eastwest;" vertex="1" parent="ieoLBsuvX7PxbXdkCon5-181">
          <mxGeometry y="28" width="110" height="27" as="geometry" />
        </mxCell>
        <mxCell id="ieoLBsuvX7PxbXdkCon5-188" value="" style="shape=partialRectangle;html=1;whiteSpace=wrap;connectable=0;strokeColor=#82b366;overflow=hidden;fillColor=#d5e8d4;top=0;left=0;bottom=0;right=0;pointerEvents=1;" vertex="1" parent="ieoLBsuvX7PxbXdkCon5-187">
          <mxGeometry width="28" height="27" as="geometry">
            <mxRectangle width="28" height="27" as="alternateBounds" />
          </mxGeometry>
        </mxCell>
        <mxCell id="ieoLBsuvX7PxbXdkCon5-189" value="" style="shape=partialRectangle;html=1;whiteSpace=wrap;connectable=0;strokeColor=#82b366;overflow=hidden;fillColor=#d5e8d4;top=0;left=0;bottom=0;right=0;pointerEvents=1;" vertex="1" parent="ieoLBsuvX7PxbXdkCon5-187">
          <mxGeometry x="28" width="27" height="27" as="geometry">
            <mxRectangle width="27" height="27" as="alternateBounds" />
          </mxGeometry>
        </mxCell>
        <mxCell id="ieoLBsuvX7PxbXdkCon5-190" value="" style="shape=partialRectangle;html=1;whiteSpace=wrap;connectable=0;strokeColor=#82b366;overflow=hidden;fillColor=#d5e8d4;top=0;left=0;bottom=0;right=0;pointerEvents=1;" vertex="1" parent="ieoLBsuvX7PxbXdkCon5-187">
          <mxGeometry x="55" width="28" height="27" as="geometry">
            <mxRectangle width="28" height="27" as="alternateBounds" />
          </mxGeometry>
        </mxCell>
        <mxCell id="ieoLBsuvX7PxbXdkCon5-191" value="" style="shape=partialRectangle;html=1;whiteSpace=wrap;connectable=0;strokeColor=#82b366;overflow=hidden;fillColor=#d5e8d4;top=0;left=0;bottom=0;right=0;pointerEvents=1;" vertex="1" parent="ieoLBsuvX7PxbXdkCon5-187">
          <mxGeometry x="83" width="27" height="27" as="geometry">
            <mxRectangle width="27" height="27" as="alternateBounds" />
          </mxGeometry>
        </mxCell>
        <mxCell id="ieoLBsuvX7PxbXdkCon5-192" value="" style="shape=tableRow;horizontal=0;startSize=0;swimlaneHead=0;swimlaneBody=0;strokeColor=inherit;top=0;left=0;bottom=0;right=0;collapsible=0;dropTarget=0;fillColor=none;points=[[0,0.5],[1,0.5]];portConstraint=eastwest;" vertex="1" parent="ieoLBsuvX7PxbXdkCon5-181">
          <mxGeometry y="55" width="110" height="28" as="geometry" />
        </mxCell>
        <mxCell id="ieoLBsuvX7PxbXdkCon5-193" value="" style="shape=partialRectangle;html=1;whiteSpace=wrap;connectable=0;strokeColor=#82b366;overflow=hidden;fillColor=#d5e8d4;top=0;left=0;bottom=0;right=0;pointerEvents=1;" vertex="1" parent="ieoLBsuvX7PxbXdkCon5-192">
          <mxGeometry width="28" height="28" as="geometry">
            <mxRectangle width="28" height="28" as="alternateBounds" />
          </mxGeometry>
        </mxCell>
        <mxCell id="ieoLBsuvX7PxbXdkCon5-194" value="" style="shape=partialRectangle;html=1;whiteSpace=wrap;connectable=0;strokeColor=#82b366;overflow=hidden;fillColor=#d5e8d4;top=0;left=0;bottom=0;right=0;pointerEvents=1;" vertex="1" parent="ieoLBsuvX7PxbXdkCon5-192">
          <mxGeometry x="28" width="27" height="28" as="geometry">
            <mxRectangle width="27" height="28" as="alternateBounds" />
          </mxGeometry>
        </mxCell>
        <mxCell id="ieoLBsuvX7PxbXdkCon5-195" value="" style="shape=partialRectangle;html=1;whiteSpace=wrap;connectable=0;strokeColor=#82b366;overflow=hidden;fillColor=#d5e8d4;top=0;left=0;bottom=0;right=0;pointerEvents=1;" vertex="1" parent="ieoLBsuvX7PxbXdkCon5-192">
          <mxGeometry x="55" width="28" height="28" as="geometry">
            <mxRectangle width="28" height="28" as="alternateBounds" />
          </mxGeometry>
        </mxCell>
        <mxCell id="ieoLBsuvX7PxbXdkCon5-196" value="" style="shape=partialRectangle;html=1;whiteSpace=wrap;connectable=0;strokeColor=#82b366;overflow=hidden;fillColor=#d5e8d4;top=0;left=0;bottom=0;right=0;pointerEvents=1;" vertex="1" parent="ieoLBsuvX7PxbXdkCon5-192">
          <mxGeometry x="83" width="27" height="28" as="geometry">
            <mxRectangle width="27" height="28" as="alternateBounds" />
          </mxGeometry>
        </mxCell>
        <mxCell id="ieoLBsuvX7PxbXdkCon5-197" value="" style="shape=tableRow;horizontal=0;startSize=0;swimlaneHead=0;swimlaneBody=0;strokeColor=inherit;top=0;left=0;bottom=0;right=0;collapsible=0;dropTarget=0;fillColor=none;points=[[0,0.5],[1,0.5]];portConstraint=eastwest;" vertex="1" parent="ieoLBsuvX7PxbXdkCon5-181">
          <mxGeometry y="83" width="110" height="27" as="geometry" />
        </mxCell>
        <mxCell id="ieoLBsuvX7PxbXdkCon5-198" value="" style="shape=partialRectangle;html=1;whiteSpace=wrap;connectable=0;strokeColor=#82b366;overflow=hidden;fillColor=#d5e8d4;top=0;left=0;bottom=0;right=0;pointerEvents=1;" vertex="1" parent="ieoLBsuvX7PxbXdkCon5-197">
          <mxGeometry width="28" height="27" as="geometry">
            <mxRectangle width="28" height="27" as="alternateBounds" />
          </mxGeometry>
        </mxCell>
        <mxCell id="ieoLBsuvX7PxbXdkCon5-199" value="" style="shape=partialRectangle;html=1;whiteSpace=wrap;connectable=0;strokeColor=#82b366;overflow=hidden;fillColor=#d5e8d4;top=0;left=0;bottom=0;right=0;pointerEvents=1;" vertex="1" parent="ieoLBsuvX7PxbXdkCon5-197">
          <mxGeometry x="28" width="27" height="27" as="geometry">
            <mxRectangle width="27" height="27" as="alternateBounds" />
          </mxGeometry>
        </mxCell>
        <mxCell id="ieoLBsuvX7PxbXdkCon5-200" value="" style="shape=partialRectangle;html=1;whiteSpace=wrap;connectable=0;strokeColor=#82b366;overflow=hidden;fillColor=#d5e8d4;top=0;left=0;bottom=0;right=0;pointerEvents=1;" vertex="1" parent="ieoLBsuvX7PxbXdkCon5-197">
          <mxGeometry x="55" width="28" height="27" as="geometry">
            <mxRectangle width="28" height="27" as="alternateBounds" />
          </mxGeometry>
        </mxCell>
        <mxCell id="ieoLBsuvX7PxbXdkCon5-201" value="" style="shape=partialRectangle;html=1;whiteSpace=wrap;connectable=0;strokeColor=#82b366;overflow=hidden;fillColor=#d5e8d4;top=0;left=0;bottom=0;right=0;pointerEvents=1;" vertex="1" parent="ieoLBsuvX7PxbXdkCon5-197">
          <mxGeometry x="83" width="27" height="27" as="geometry">
            <mxRectangle width="27" height="27" as="alternateBounds" />
          </mxGeometry>
        </mxCell>
        <mxCell id="ieoLBsuvX7PxbXdkCon5-202" value="" style="edgeStyle=orthogonalEdgeStyle;rounded=0;orthogonalLoop=1;jettySize=auto;html=1;" edge="1" parent="1" source="ieoLBsuvX7PxbXdkCon5-225" target="ieoLBsuvX7PxbXdkCon5-203">
          <mxGeometry relative="1" as="geometry" />
        </mxCell>
        <mxCell id="ieoLBsuvX7PxbXdkCon5-203" value="" style="shape=table;startSize=0;container=1;collapsible=0;childLayout=tableLayout;" vertex="1" parent="1">
          <mxGeometry x="40" y="520" width="110" height="110" as="geometry" />
        </mxCell>
        <mxCell id="ieoLBsuvX7PxbXdkCon5-204" value="" style="shape=tableRow;horizontal=0;startSize=0;swimlaneHead=0;swimlaneBody=0;strokeColor=inherit;top=0;left=0;bottom=0;right=0;collapsible=0;dropTarget=0;fillColor=none;points=[[0,0.5],[1,0.5]];portConstraint=eastwest;" vertex="1" parent="ieoLBsuvX7PxbXdkCon5-203">
          <mxGeometry width="110" height="28" as="geometry" />
        </mxCell>
        <mxCell id="ieoLBsuvX7PxbXdkCon5-205" value="" style="shape=partialRectangle;html=1;whiteSpace=wrap;connectable=0;strokeColor=inherit;overflow=hidden;fillColor=none;top=0;left=0;bottom=0;right=0;pointerEvents=1;" vertex="1" parent="ieoLBsuvX7PxbXdkCon5-204">
          <mxGeometry width="28" height="28" as="geometry">
            <mxRectangle width="28" height="28" as="alternateBounds" />
          </mxGeometry>
        </mxCell>
        <mxCell id="ieoLBsuvX7PxbXdkCon5-206" value="" style="shape=partialRectangle;html=1;whiteSpace=wrap;connectable=0;strokeColor=#82b366;overflow=hidden;fillColor=#d5e8d4;top=0;left=0;bottom=0;right=0;pointerEvents=1;" vertex="1" parent="ieoLBsuvX7PxbXdkCon5-204">
          <mxGeometry x="28" width="27" height="28" as="geometry">
            <mxRectangle width="27" height="28" as="alternateBounds" />
          </mxGeometry>
        </mxCell>
        <mxCell id="ieoLBsuvX7PxbXdkCon5-207" value="" style="shape=partialRectangle;html=1;whiteSpace=wrap;connectable=0;strokeColor=#82b366;overflow=hidden;fillColor=#d5e8d4;top=0;left=0;bottom=0;right=0;pointerEvents=1;" vertex="1" parent="ieoLBsuvX7PxbXdkCon5-204">
          <mxGeometry x="55" width="28" height="28" as="geometry">
            <mxRectangle width="28" height="28" as="alternateBounds" />
          </mxGeometry>
        </mxCell>
        <mxCell id="ieoLBsuvX7PxbXdkCon5-208" value="" style="shape=partialRectangle;html=1;whiteSpace=wrap;connectable=0;strokeColor=#82b366;overflow=hidden;fillColor=#d5e8d4;top=0;left=0;bottom=0;right=0;pointerEvents=1;" vertex="1" parent="ieoLBsuvX7PxbXdkCon5-204">
          <mxGeometry x="83" width="27" height="28" as="geometry">
            <mxRectangle width="27" height="28" as="alternateBounds" />
          </mxGeometry>
        </mxCell>
        <mxCell id="ieoLBsuvX7PxbXdkCon5-209" value="" style="shape=tableRow;horizontal=0;startSize=0;swimlaneHead=0;swimlaneBody=0;strokeColor=inherit;top=0;left=0;bottom=0;right=0;collapsible=0;dropTarget=0;fillColor=none;points=[[0,0.5],[1,0.5]];portConstraint=eastwest;" vertex="1" parent="ieoLBsuvX7PxbXdkCon5-203">
          <mxGeometry y="28" width="110" height="27" as="geometry" />
        </mxCell>
        <mxCell id="ieoLBsuvX7PxbXdkCon5-210" value="" style="shape=partialRectangle;html=1;whiteSpace=wrap;connectable=0;strokeColor=#82b366;overflow=hidden;fillColor=#d5e8d4;top=0;left=0;bottom=0;right=0;pointerEvents=1;" vertex="1" parent="ieoLBsuvX7PxbXdkCon5-209">
          <mxGeometry width="28" height="27" as="geometry">
            <mxRectangle width="28" height="27" as="alternateBounds" />
          </mxGeometry>
        </mxCell>
        <mxCell id="ieoLBsuvX7PxbXdkCon5-211" value="" style="shape=partialRectangle;html=1;whiteSpace=wrap;connectable=0;strokeColor=inherit;overflow=hidden;fillColor=none;top=0;left=0;bottom=0;right=0;pointerEvents=1;" vertex="1" parent="ieoLBsuvX7PxbXdkCon5-209">
          <mxGeometry x="28" width="27" height="27" as="geometry">
            <mxRectangle width="27" height="27" as="alternateBounds" />
          </mxGeometry>
        </mxCell>
        <mxCell id="ieoLBsuvX7PxbXdkCon5-212" value="" style="shape=partialRectangle;html=1;whiteSpace=wrap;connectable=0;strokeColor=#82b366;overflow=hidden;fillColor=#d5e8d4;top=0;left=0;bottom=0;right=0;pointerEvents=1;" vertex="1" parent="ieoLBsuvX7PxbXdkCon5-209">
          <mxGeometry x="55" width="28" height="27" as="geometry">
            <mxRectangle width="28" height="27" as="alternateBounds" />
          </mxGeometry>
        </mxCell>
        <mxCell id="ieoLBsuvX7PxbXdkCon5-213" value="" style="shape=partialRectangle;html=1;whiteSpace=wrap;connectable=0;strokeColor=#82b366;overflow=hidden;fillColor=#d5e8d4;top=0;left=0;bottom=0;right=0;pointerEvents=1;" vertex="1" parent="ieoLBsuvX7PxbXdkCon5-209">
          <mxGeometry x="83" width="27" height="27" as="geometry">
            <mxRectangle width="27" height="27" as="alternateBounds" />
          </mxGeometry>
        </mxCell>
        <mxCell id="ieoLBsuvX7PxbXdkCon5-214" value="" style="shape=tableRow;horizontal=0;startSize=0;swimlaneHead=0;swimlaneBody=0;strokeColor=inherit;top=0;left=0;bottom=0;right=0;collapsible=0;dropTarget=0;fillColor=none;points=[[0,0.5],[1,0.5]];portConstraint=eastwest;" vertex="1" parent="ieoLBsuvX7PxbXdkCon5-203">
          <mxGeometry y="55" width="110" height="28" as="geometry" />
        </mxCell>
        <mxCell id="ieoLBsuvX7PxbXdkCon5-215" value="" style="shape=partialRectangle;html=1;whiteSpace=wrap;connectable=0;strokeColor=#82b366;overflow=hidden;fillColor=#d5e8d4;top=0;left=0;bottom=0;right=0;pointerEvents=1;" vertex="1" parent="ieoLBsuvX7PxbXdkCon5-214">
          <mxGeometry width="28" height="28" as="geometry">
            <mxRectangle width="28" height="28" as="alternateBounds" />
          </mxGeometry>
        </mxCell>
        <mxCell id="ieoLBsuvX7PxbXdkCon5-216" value="" style="shape=partialRectangle;html=1;whiteSpace=wrap;connectable=0;strokeColor=#82b366;overflow=hidden;fillColor=#d5e8d4;top=0;left=0;bottom=0;right=0;pointerEvents=1;" vertex="1" parent="ieoLBsuvX7PxbXdkCon5-214">
          <mxGeometry x="28" width="27" height="28" as="geometry">
            <mxRectangle width="27" height="28" as="alternateBounds" />
          </mxGeometry>
        </mxCell>
        <mxCell id="ieoLBsuvX7PxbXdkCon5-217" value="" style="shape=partialRectangle;html=1;whiteSpace=wrap;connectable=0;strokeColor=inherit;overflow=hidden;fillColor=none;top=0;left=0;bottom=0;right=0;pointerEvents=1;" vertex="1" parent="ieoLBsuvX7PxbXdkCon5-214">
          <mxGeometry x="55" width="28" height="28" as="geometry">
            <mxRectangle width="28" height="28" as="alternateBounds" />
          </mxGeometry>
        </mxCell>
        <mxCell id="ieoLBsuvX7PxbXdkCon5-218" value="" style="shape=partialRectangle;html=1;whiteSpace=wrap;connectable=0;strokeColor=#82b366;overflow=hidden;fillColor=#d5e8d4;top=0;left=0;bottom=0;right=0;pointerEvents=1;" vertex="1" parent="ieoLBsuvX7PxbXdkCon5-214">
          <mxGeometry x="83" width="27" height="28" as="geometry">
            <mxRectangle width="27" height="28" as="alternateBounds" />
          </mxGeometry>
        </mxCell>
        <mxCell id="ieoLBsuvX7PxbXdkCon5-219" value="" style="shape=tableRow;horizontal=0;startSize=0;swimlaneHead=0;swimlaneBody=0;strokeColor=inherit;top=0;left=0;bottom=0;right=0;collapsible=0;dropTarget=0;fillColor=none;points=[[0,0.5],[1,0.5]];portConstraint=eastwest;" vertex="1" parent="ieoLBsuvX7PxbXdkCon5-203">
          <mxGeometry y="83" width="110" height="27" as="geometry" />
        </mxCell>
        <mxCell id="ieoLBsuvX7PxbXdkCon5-220" value="" style="shape=partialRectangle;html=1;whiteSpace=wrap;connectable=0;strokeColor=#82b366;overflow=hidden;fillColor=#d5e8d4;top=0;left=0;bottom=0;right=0;pointerEvents=1;" vertex="1" parent="ieoLBsuvX7PxbXdkCon5-219">
          <mxGeometry width="28" height="27" as="geometry">
            <mxRectangle width="28" height="27" as="alternateBounds" />
          </mxGeometry>
        </mxCell>
        <mxCell id="ieoLBsuvX7PxbXdkCon5-221" value="" style="shape=partialRectangle;html=1;whiteSpace=wrap;connectable=0;strokeColor=#82b366;overflow=hidden;fillColor=#d5e8d4;top=0;left=0;bottom=0;right=0;pointerEvents=1;" vertex="1" parent="ieoLBsuvX7PxbXdkCon5-219">
          <mxGeometry x="28" width="27" height="27" as="geometry">
            <mxRectangle width="27" height="27" as="alternateBounds" />
          </mxGeometry>
        </mxCell>
        <mxCell id="ieoLBsuvX7PxbXdkCon5-222" value="" style="shape=partialRectangle;html=1;whiteSpace=wrap;connectable=0;strokeColor=#82b366;overflow=hidden;fillColor=#d5e8d4;top=0;left=0;bottom=0;right=0;pointerEvents=1;" vertex="1" parent="ieoLBsuvX7PxbXdkCon5-219">
          <mxGeometry x="55" width="28" height="27" as="geometry">
            <mxRectangle width="28" height="27" as="alternateBounds" />
          </mxGeometry>
        </mxCell>
        <mxCell id="ieoLBsuvX7PxbXdkCon5-223" value="" style="shape=partialRectangle;html=1;whiteSpace=wrap;connectable=0;strokeColor=inherit;overflow=hidden;fillColor=none;top=0;left=0;bottom=0;right=0;pointerEvents=1;" vertex="1" parent="ieoLBsuvX7PxbXdkCon5-219">
          <mxGeometry x="83" width="27" height="27" as="geometry">
            <mxRectangle width="27" height="27" as="alternateBounds" />
          </mxGeometry>
        </mxCell>
        <mxCell id="ieoLBsuvX7PxbXdkCon5-224" value="" style="edgeStyle=orthogonalEdgeStyle;rounded=0;orthogonalLoop=1;jettySize=auto;html=1;" edge="1" parent="1" source="ieoLBsuvX7PxbXdkCon5-247" target="ieoLBsuvX7PxbXdkCon5-225">
          <mxGeometry relative="1" as="geometry" />
        </mxCell>
        <mxCell id="ieoLBsuvX7PxbXdkCon5-225" value="" style="shape=table;startSize=0;container=1;collapsible=0;childLayout=tableLayout;" vertex="1" parent="1">
          <mxGeometry x="240" y="520" width="110" height="110" as="geometry" />
        </mxCell>
        <mxCell id="ieoLBsuvX7PxbXdkCon5-226" value="" style="shape=tableRow;horizontal=0;startSize=0;swimlaneHead=0;swimlaneBody=0;strokeColor=inherit;top=0;left=0;bottom=0;right=0;collapsible=0;dropTarget=0;fillColor=none;points=[[0,0.5],[1,0.5]];portConstraint=eastwest;" vertex="1" parent="ieoLBsuvX7PxbXdkCon5-225">
          <mxGeometry width="110" height="28" as="geometry" />
        </mxCell>
        <mxCell id="ieoLBsuvX7PxbXdkCon5-227" value="" style="shape=partialRectangle;html=1;whiteSpace=wrap;connectable=0;strokeColor=inherit;overflow=hidden;fillColor=none;top=0;left=0;bottom=0;right=0;pointerEvents=1;" vertex="1" parent="ieoLBsuvX7PxbXdkCon5-226">
          <mxGeometry width="28" height="28" as="geometry">
            <mxRectangle width="28" height="28" as="alternateBounds" />
          </mxGeometry>
        </mxCell>
        <mxCell id="ieoLBsuvX7PxbXdkCon5-228" value="" style="shape=partialRectangle;html=1;whiteSpace=wrap;connectable=0;strokeColor=#82b366;overflow=hidden;fillColor=#d5e8d4;top=0;left=0;bottom=0;right=0;pointerEvents=1;" vertex="1" parent="ieoLBsuvX7PxbXdkCon5-226">
          <mxGeometry x="28" width="27" height="28" as="geometry">
            <mxRectangle width="27" height="28" as="alternateBounds" />
          </mxGeometry>
        </mxCell>
        <mxCell id="ieoLBsuvX7PxbXdkCon5-229" value="" style="shape=partialRectangle;html=1;whiteSpace=wrap;connectable=0;strokeColor=#82b366;overflow=hidden;fillColor=#d5e8d4;top=0;left=0;bottom=0;right=0;pointerEvents=1;" vertex="1" parent="ieoLBsuvX7PxbXdkCon5-226">
          <mxGeometry x="55" width="28" height="28" as="geometry">
            <mxRectangle width="28" height="28" as="alternateBounds" />
          </mxGeometry>
        </mxCell>
        <mxCell id="ieoLBsuvX7PxbXdkCon5-230" value="" style="shape=partialRectangle;html=1;whiteSpace=wrap;connectable=0;strokeColor=#82b366;overflow=hidden;fillColor=#d5e8d4;top=0;left=0;bottom=0;right=0;pointerEvents=1;" vertex="1" parent="ieoLBsuvX7PxbXdkCon5-226">
          <mxGeometry x="83" width="27" height="28" as="geometry">
            <mxRectangle width="27" height="28" as="alternateBounds" />
          </mxGeometry>
        </mxCell>
        <mxCell id="ieoLBsuvX7PxbXdkCon5-231" value="" style="shape=tableRow;horizontal=0;startSize=0;swimlaneHead=0;swimlaneBody=0;strokeColor=inherit;top=0;left=0;bottom=0;right=0;collapsible=0;dropTarget=0;fillColor=none;points=[[0,0.5],[1,0.5]];portConstraint=eastwest;" vertex="1" parent="ieoLBsuvX7PxbXdkCon5-225">
          <mxGeometry y="28" width="110" height="27" as="geometry" />
        </mxCell>
        <mxCell id="ieoLBsuvX7PxbXdkCon5-232" value="" style="shape=partialRectangle;html=1;whiteSpace=wrap;connectable=0;strokeColor=#82b366;overflow=hidden;fillColor=#d5e8d4;top=0;left=0;bottom=0;right=0;pointerEvents=1;" vertex="1" parent="ieoLBsuvX7PxbXdkCon5-231">
          <mxGeometry width="28" height="27" as="geometry">
            <mxRectangle width="28" height="27" as="alternateBounds" />
          </mxGeometry>
        </mxCell>
        <mxCell id="ieoLBsuvX7PxbXdkCon5-233" value="" style="shape=partialRectangle;html=1;whiteSpace=wrap;connectable=0;strokeColor=inherit;overflow=hidden;fillColor=none;top=0;left=0;bottom=0;right=0;pointerEvents=1;" vertex="1" parent="ieoLBsuvX7PxbXdkCon5-231">
          <mxGeometry x="28" width="27" height="27" as="geometry">
            <mxRectangle width="27" height="27" as="alternateBounds" />
          </mxGeometry>
        </mxCell>
        <mxCell id="ieoLBsuvX7PxbXdkCon5-234" value="" style="shape=partialRectangle;html=1;whiteSpace=wrap;connectable=0;strokeColor=#82b366;overflow=hidden;fillColor=#d5e8d4;top=0;left=0;bottom=0;right=0;pointerEvents=1;" vertex="1" parent="ieoLBsuvX7PxbXdkCon5-231">
          <mxGeometry x="55" width="28" height="27" as="geometry">
            <mxRectangle width="28" height="27" as="alternateBounds" />
          </mxGeometry>
        </mxCell>
        <mxCell id="ieoLBsuvX7PxbXdkCon5-235" value="" style="shape=partialRectangle;html=1;whiteSpace=wrap;connectable=0;strokeColor=#82b366;overflow=hidden;fillColor=#d5e8d4;top=0;left=0;bottom=0;right=0;pointerEvents=1;" vertex="1" parent="ieoLBsuvX7PxbXdkCon5-231">
          <mxGeometry x="83" width="27" height="27" as="geometry">
            <mxRectangle width="27" height="27" as="alternateBounds" />
          </mxGeometry>
        </mxCell>
        <mxCell id="ieoLBsuvX7PxbXdkCon5-236" value="" style="shape=tableRow;horizontal=0;startSize=0;swimlaneHead=0;swimlaneBody=0;strokeColor=inherit;top=0;left=0;bottom=0;right=0;collapsible=0;dropTarget=0;fillColor=none;points=[[0,0.5],[1,0.5]];portConstraint=eastwest;" vertex="1" parent="ieoLBsuvX7PxbXdkCon5-225">
          <mxGeometry y="55" width="110" height="28" as="geometry" />
        </mxCell>
        <mxCell id="ieoLBsuvX7PxbXdkCon5-237" value="" style="shape=partialRectangle;html=1;whiteSpace=wrap;connectable=0;strokeColor=#82b366;overflow=hidden;fillColor=#d5e8d4;top=0;left=0;bottom=0;right=0;pointerEvents=1;" vertex="1" parent="ieoLBsuvX7PxbXdkCon5-236">
          <mxGeometry width="28" height="28" as="geometry">
            <mxRectangle width="28" height="28" as="alternateBounds" />
          </mxGeometry>
        </mxCell>
        <mxCell id="ieoLBsuvX7PxbXdkCon5-238" value="" style="shape=partialRectangle;html=1;whiteSpace=wrap;connectable=0;strokeColor=#82b366;overflow=hidden;fillColor=#d5e8d4;top=0;left=0;bottom=0;right=0;pointerEvents=1;" vertex="1" parent="ieoLBsuvX7PxbXdkCon5-236">
          <mxGeometry x="28" width="27" height="28" as="geometry">
            <mxRectangle width="27" height="28" as="alternateBounds" />
          </mxGeometry>
        </mxCell>
        <mxCell id="ieoLBsuvX7PxbXdkCon5-239" value="" style="shape=partialRectangle;html=1;whiteSpace=wrap;connectable=0;strokeColor=inherit;overflow=hidden;fillColor=none;top=0;left=0;bottom=0;right=0;pointerEvents=1;" vertex="1" parent="ieoLBsuvX7PxbXdkCon5-236">
          <mxGeometry x="55" width="28" height="28" as="geometry">
            <mxRectangle width="28" height="28" as="alternateBounds" />
          </mxGeometry>
        </mxCell>
        <mxCell id="ieoLBsuvX7PxbXdkCon5-240" value="" style="shape=partialRectangle;html=1;whiteSpace=wrap;connectable=0;strokeColor=#82b366;overflow=hidden;fillColor=#d5e8d4;top=0;left=0;bottom=0;right=0;pointerEvents=1;" vertex="1" parent="ieoLBsuvX7PxbXdkCon5-236">
          <mxGeometry x="83" width="27" height="28" as="geometry">
            <mxRectangle width="27" height="28" as="alternateBounds" />
          </mxGeometry>
        </mxCell>
        <mxCell id="ieoLBsuvX7PxbXdkCon5-241" value="" style="shape=tableRow;horizontal=0;startSize=0;swimlaneHead=0;swimlaneBody=0;strokeColor=inherit;top=0;left=0;bottom=0;right=0;collapsible=0;dropTarget=0;fillColor=none;points=[[0,0.5],[1,0.5]];portConstraint=eastwest;" vertex="1" parent="ieoLBsuvX7PxbXdkCon5-225">
          <mxGeometry y="83" width="110" height="27" as="geometry" />
        </mxCell>
        <mxCell id="ieoLBsuvX7PxbXdkCon5-242" value="" style="shape=partialRectangle;html=1;whiteSpace=wrap;connectable=0;strokeColor=#82b366;overflow=hidden;fillColor=#d5e8d4;top=0;left=0;bottom=0;right=0;pointerEvents=1;" vertex="1" parent="ieoLBsuvX7PxbXdkCon5-241">
          <mxGeometry width="28" height="27" as="geometry">
            <mxRectangle width="28" height="27" as="alternateBounds" />
          </mxGeometry>
        </mxCell>
        <mxCell id="ieoLBsuvX7PxbXdkCon5-243" value="" style="shape=partialRectangle;html=1;whiteSpace=wrap;connectable=0;strokeColor=#82b366;overflow=hidden;fillColor=#d5e8d4;top=0;left=0;bottom=0;right=0;pointerEvents=1;" vertex="1" parent="ieoLBsuvX7PxbXdkCon5-241">
          <mxGeometry x="28" width="27" height="27" as="geometry">
            <mxRectangle width="27" height="27" as="alternateBounds" />
          </mxGeometry>
        </mxCell>
        <mxCell id="ieoLBsuvX7PxbXdkCon5-244" value="" style="shape=partialRectangle;html=1;whiteSpace=wrap;connectable=0;strokeColor=#82b366;overflow=hidden;fillColor=#d5e8d4;top=0;left=0;bottom=0;right=0;pointerEvents=1;" vertex="1" parent="ieoLBsuvX7PxbXdkCon5-241">
          <mxGeometry x="55" width="28" height="27" as="geometry">
            <mxRectangle width="28" height="27" as="alternateBounds" />
          </mxGeometry>
        </mxCell>
        <mxCell id="ieoLBsuvX7PxbXdkCon5-245" value="" style="shape=partialRectangle;html=1;whiteSpace=wrap;connectable=0;strokeColor=inherit;overflow=hidden;fillColor=none;top=0;left=0;bottom=0;right=0;pointerEvents=1;" vertex="1" parent="ieoLBsuvX7PxbXdkCon5-241">
          <mxGeometry x="83" width="27" height="27" as="geometry">
            <mxRectangle width="27" height="27" as="alternateBounds" />
          </mxGeometry>
        </mxCell>
        <mxCell id="ieoLBsuvX7PxbXdkCon5-246" value="" style="edgeStyle=orthogonalEdgeStyle;rounded=0;orthogonalLoop=1;jettySize=auto;html=1;" edge="1" parent="1" source="ieoLBsuvX7PxbXdkCon5-268" target="ieoLBsuvX7PxbXdkCon5-247">
          <mxGeometry relative="1" as="geometry" />
        </mxCell>
        <mxCell id="ieoLBsuvX7PxbXdkCon5-413" value="Mix&amp;nbsp;" style="edgeLabel;html=1;align=center;verticalAlign=middle;resizable=0;points=[];" vertex="1" connectable="0" parent="ieoLBsuvX7PxbXdkCon5-246">
          <mxGeometry x="0.0222" relative="1" as="geometry">
            <mxPoint as="offset" />
          </mxGeometry>
        </mxCell>
        <mxCell id="ieoLBsuvX7PxbXdkCon5-247" value="" style="shape=table;startSize=0;container=1;collapsible=0;childLayout=tableLayout;" vertex="1" parent="1">
          <mxGeometry x="440" y="520" width="110" height="110" as="geometry" />
        </mxCell>
        <mxCell id="ieoLBsuvX7PxbXdkCon5-248" value="" style="shape=tableRow;horizontal=0;startSize=0;swimlaneHead=0;swimlaneBody=0;strokeColor=inherit;top=0;left=0;bottom=0;right=0;collapsible=0;dropTarget=0;fillColor=none;points=[[0,0.5],[1,0.5]];portConstraint=eastwest;" vertex="1" parent="ieoLBsuvX7PxbXdkCon5-247">
          <mxGeometry width="110" height="28" as="geometry" />
        </mxCell>
        <mxCell id="ieoLBsuvX7PxbXdkCon5-249" value="" style="shape=partialRectangle;html=1;whiteSpace=wrap;connectable=0;strokeColor=inherit;overflow=hidden;fillColor=none;top=0;left=0;bottom=0;right=0;pointerEvents=1;" vertex="1" parent="ieoLBsuvX7PxbXdkCon5-248">
          <mxGeometry width="28" height="28" as="geometry">
            <mxRectangle width="28" height="28" as="alternateBounds" />
          </mxGeometry>
        </mxCell>
        <mxCell id="ieoLBsuvX7PxbXdkCon5-250" value="" style="shape=partialRectangle;html=1;whiteSpace=wrap;connectable=0;strokeColor=#82b366;overflow=hidden;fillColor=#d5e8d4;top=0;left=0;bottom=0;right=0;pointerEvents=1;" vertex="1" parent="ieoLBsuvX7PxbXdkCon5-248">
          <mxGeometry x="28" width="27" height="28" as="geometry">
            <mxRectangle width="27" height="28" as="alternateBounds" />
          </mxGeometry>
        </mxCell>
        <mxCell id="ieoLBsuvX7PxbXdkCon5-251" value="" style="shape=partialRectangle;html=1;whiteSpace=wrap;connectable=0;strokeColor=#82b366;overflow=hidden;fillColor=#d5e8d4;top=0;left=0;bottom=0;right=0;pointerEvents=1;" vertex="1" parent="ieoLBsuvX7PxbXdkCon5-248">
          <mxGeometry x="55" width="28" height="28" as="geometry">
            <mxRectangle width="28" height="28" as="alternateBounds" />
          </mxGeometry>
        </mxCell>
        <mxCell id="ieoLBsuvX7PxbXdkCon5-252" value="" style="shape=partialRectangle;html=1;whiteSpace=wrap;connectable=0;strokeColor=#82b366;overflow=hidden;fillColor=#d5e8d4;top=0;left=0;bottom=0;right=0;pointerEvents=1;" vertex="1" parent="ieoLBsuvX7PxbXdkCon5-248">
          <mxGeometry x="83" width="27" height="28" as="geometry">
            <mxRectangle width="27" height="28" as="alternateBounds" />
          </mxGeometry>
        </mxCell>
        <mxCell id="ieoLBsuvX7PxbXdkCon5-253" value="" style="shape=tableRow;horizontal=0;startSize=0;swimlaneHead=0;swimlaneBody=0;strokeColor=inherit;top=0;left=0;bottom=0;right=0;collapsible=0;dropTarget=0;fillColor=none;points=[[0,0.5],[1,0.5]];portConstraint=eastwest;" vertex="1" parent="ieoLBsuvX7PxbXdkCon5-247">
          <mxGeometry y="28" width="110" height="27" as="geometry" />
        </mxCell>
        <mxCell id="ieoLBsuvX7PxbXdkCon5-254" value="" style="shape=partialRectangle;html=1;whiteSpace=wrap;connectable=0;strokeColor=inherit;overflow=hidden;fillColor=none;top=0;left=0;bottom=0;right=0;pointerEvents=1;" vertex="1" parent="ieoLBsuvX7PxbXdkCon5-253">
          <mxGeometry width="28" height="27" as="geometry">
            <mxRectangle width="28" height="27" as="alternateBounds" />
          </mxGeometry>
        </mxCell>
        <mxCell id="ieoLBsuvX7PxbXdkCon5-255" value="" style="shape=partialRectangle;html=1;whiteSpace=wrap;connectable=0;strokeColor=#82b366;overflow=hidden;fillColor=#d5e8d4;top=0;left=0;bottom=0;right=0;pointerEvents=1;" vertex="1" parent="ieoLBsuvX7PxbXdkCon5-253">
          <mxGeometry x="28" width="27" height="27" as="geometry">
            <mxRectangle width="27" height="27" as="alternateBounds" />
          </mxGeometry>
        </mxCell>
        <mxCell id="ieoLBsuvX7PxbXdkCon5-256" value="" style="shape=partialRectangle;html=1;whiteSpace=wrap;connectable=0;strokeColor=#82b366;overflow=hidden;fillColor=#d5e8d4;top=0;left=0;bottom=0;right=0;pointerEvents=1;" vertex="1" parent="ieoLBsuvX7PxbXdkCon5-253">
          <mxGeometry x="55" width="28" height="27" as="geometry">
            <mxRectangle width="28" height="27" as="alternateBounds" />
          </mxGeometry>
        </mxCell>
        <mxCell id="ieoLBsuvX7PxbXdkCon5-257" value="" style="shape=partialRectangle;html=1;whiteSpace=wrap;connectable=0;strokeColor=#82b366;overflow=hidden;fillColor=#d5e8d4;top=0;left=0;bottom=0;right=0;pointerEvents=1;" vertex="1" parent="ieoLBsuvX7PxbXdkCon5-253">
          <mxGeometry x="83" width="27" height="27" as="geometry">
            <mxRectangle width="27" height="27" as="alternateBounds" />
          </mxGeometry>
        </mxCell>
        <mxCell id="ieoLBsuvX7PxbXdkCon5-258" value="" style="shape=tableRow;horizontal=0;startSize=0;swimlaneHead=0;swimlaneBody=0;strokeColor=inherit;top=0;left=0;bottom=0;right=0;collapsible=0;dropTarget=0;fillColor=none;points=[[0,0.5],[1,0.5]];portConstraint=eastwest;" vertex="1" parent="ieoLBsuvX7PxbXdkCon5-247">
          <mxGeometry y="55" width="110" height="28" as="geometry" />
        </mxCell>
        <mxCell id="ieoLBsuvX7PxbXdkCon5-259" value="" style="shape=partialRectangle;html=1;whiteSpace=wrap;connectable=0;strokeColor=inherit;overflow=hidden;fillColor=none;top=0;left=0;bottom=0;right=0;pointerEvents=1;" vertex="1" parent="ieoLBsuvX7PxbXdkCon5-258">
          <mxGeometry width="28" height="28" as="geometry">
            <mxRectangle width="28" height="28" as="alternateBounds" />
          </mxGeometry>
        </mxCell>
        <mxCell id="ieoLBsuvX7PxbXdkCon5-260" value="" style="shape=partialRectangle;html=1;whiteSpace=wrap;connectable=0;strokeColor=#82b366;overflow=hidden;fillColor=#d5e8d4;top=0;left=0;bottom=0;right=0;pointerEvents=1;" vertex="1" parent="ieoLBsuvX7PxbXdkCon5-258">
          <mxGeometry x="28" width="27" height="28" as="geometry">
            <mxRectangle width="27" height="28" as="alternateBounds" />
          </mxGeometry>
        </mxCell>
        <mxCell id="ieoLBsuvX7PxbXdkCon5-261" value="" style="shape=partialRectangle;html=1;whiteSpace=wrap;connectable=0;strokeColor=#82b366;overflow=hidden;fillColor=#d5e8d4;top=0;left=0;bottom=0;right=0;pointerEvents=1;" vertex="1" parent="ieoLBsuvX7PxbXdkCon5-258">
          <mxGeometry x="55" width="28" height="28" as="geometry">
            <mxRectangle width="28" height="28" as="alternateBounds" />
          </mxGeometry>
        </mxCell>
        <mxCell id="ieoLBsuvX7PxbXdkCon5-262" value="" style="shape=partialRectangle;html=1;whiteSpace=wrap;connectable=0;strokeColor=#82b366;overflow=hidden;fillColor=#d5e8d4;top=0;left=0;bottom=0;right=0;pointerEvents=1;" vertex="1" parent="ieoLBsuvX7PxbXdkCon5-258">
          <mxGeometry x="83" width="27" height="28" as="geometry">
            <mxRectangle width="27" height="28" as="alternateBounds" />
          </mxGeometry>
        </mxCell>
        <mxCell id="ieoLBsuvX7PxbXdkCon5-263" value="" style="shape=tableRow;horizontal=0;startSize=0;swimlaneHead=0;swimlaneBody=0;strokeColor=inherit;top=0;left=0;bottom=0;right=0;collapsible=0;dropTarget=0;fillColor=none;points=[[0,0.5],[1,0.5]];portConstraint=eastwest;" vertex="1" parent="ieoLBsuvX7PxbXdkCon5-247">
          <mxGeometry y="83" width="110" height="27" as="geometry" />
        </mxCell>
        <mxCell id="ieoLBsuvX7PxbXdkCon5-264" value="" style="shape=partialRectangle;html=1;whiteSpace=wrap;connectable=0;strokeColor=inherit;overflow=hidden;fillColor=none;top=0;left=0;bottom=0;right=0;pointerEvents=1;" vertex="1" parent="ieoLBsuvX7PxbXdkCon5-263">
          <mxGeometry width="28" height="27" as="geometry">
            <mxRectangle width="28" height="27" as="alternateBounds" />
          </mxGeometry>
        </mxCell>
        <mxCell id="ieoLBsuvX7PxbXdkCon5-265" value="" style="shape=partialRectangle;html=1;whiteSpace=wrap;connectable=0;strokeColor=#82b366;overflow=hidden;fillColor=#d5e8d4;top=0;left=0;bottom=0;right=0;pointerEvents=1;" vertex="1" parent="ieoLBsuvX7PxbXdkCon5-263">
          <mxGeometry x="28" width="27" height="27" as="geometry">
            <mxRectangle width="27" height="27" as="alternateBounds" />
          </mxGeometry>
        </mxCell>
        <mxCell id="ieoLBsuvX7PxbXdkCon5-266" value="" style="shape=partialRectangle;html=1;whiteSpace=wrap;connectable=0;strokeColor=#82b366;overflow=hidden;fillColor=#d5e8d4;top=0;left=0;bottom=0;right=0;pointerEvents=1;" vertex="1" parent="ieoLBsuvX7PxbXdkCon5-263">
          <mxGeometry x="55" width="28" height="27" as="geometry">
            <mxRectangle width="28" height="27" as="alternateBounds" />
          </mxGeometry>
        </mxCell>
        <mxCell id="ieoLBsuvX7PxbXdkCon5-267" value="" style="shape=partialRectangle;html=1;whiteSpace=wrap;connectable=0;strokeColor=#82b366;overflow=hidden;fillColor=#d5e8d4;top=0;left=0;bottom=0;right=0;pointerEvents=1;" vertex="1" parent="ieoLBsuvX7PxbXdkCon5-263">
          <mxGeometry x="83" width="27" height="27" as="geometry">
            <mxRectangle width="27" height="27" as="alternateBounds" />
          </mxGeometry>
        </mxCell>
        <mxCell id="ieoLBsuvX7PxbXdkCon5-268" value="" style="shape=table;startSize=0;container=1;collapsible=0;childLayout=tableLayout;" vertex="1" parent="1">
          <mxGeometry x="640" y="520" width="110" height="110" as="geometry" />
        </mxCell>
        <mxCell id="ieoLBsuvX7PxbXdkCon5-269" value="" style="shape=tableRow;horizontal=0;startSize=0;swimlaneHead=0;swimlaneBody=0;strokeColor=inherit;top=0;left=0;bottom=0;right=0;collapsible=0;dropTarget=0;fillColor=none;points=[[0,0.5],[1,0.5]];portConstraint=eastwest;" vertex="1" parent="ieoLBsuvX7PxbXdkCon5-268">
          <mxGeometry width="110" height="28" as="geometry" />
        </mxCell>
        <mxCell id="ieoLBsuvX7PxbXdkCon5-270" value="" style="shape=partialRectangle;html=1;whiteSpace=wrap;connectable=0;strokeColor=inherit;overflow=hidden;fillColor=none;top=0;left=0;bottom=0;right=0;pointerEvents=1;" vertex="1" parent="ieoLBsuvX7PxbXdkCon5-269">
          <mxGeometry width="28" height="28" as="geometry">
            <mxRectangle width="28" height="28" as="alternateBounds" />
          </mxGeometry>
        </mxCell>
        <mxCell id="ieoLBsuvX7PxbXdkCon5-271" value="" style="shape=partialRectangle;html=1;whiteSpace=wrap;connectable=0;strokeColor=#82b366;overflow=hidden;fillColor=#d5e8d4;top=0;left=0;bottom=0;right=0;pointerEvents=1;" vertex="1" parent="ieoLBsuvX7PxbXdkCon5-269">
          <mxGeometry x="28" width="27" height="28" as="geometry">
            <mxRectangle width="27" height="28" as="alternateBounds" />
          </mxGeometry>
        </mxCell>
        <mxCell id="ieoLBsuvX7PxbXdkCon5-272" value="" style="shape=partialRectangle;html=1;whiteSpace=wrap;connectable=0;strokeColor=#82b366;overflow=hidden;fillColor=#d5e8d4;top=0;left=0;bottom=0;right=0;pointerEvents=1;" vertex="1" parent="ieoLBsuvX7PxbXdkCon5-269">
          <mxGeometry x="55" width="28" height="28" as="geometry">
            <mxRectangle width="28" height="28" as="alternateBounds" />
          </mxGeometry>
        </mxCell>
        <mxCell id="ieoLBsuvX7PxbXdkCon5-273" value="" style="shape=partialRectangle;html=1;whiteSpace=wrap;connectable=0;strokeColor=#82b366;overflow=hidden;fillColor=#d5e8d4;top=0;left=0;bottom=0;right=0;pointerEvents=1;" vertex="1" parent="ieoLBsuvX7PxbXdkCon5-269">
          <mxGeometry x="83" width="27" height="28" as="geometry">
            <mxRectangle width="27" height="28" as="alternateBounds" />
          </mxGeometry>
        </mxCell>
        <mxCell id="ieoLBsuvX7PxbXdkCon5-274" value="" style="shape=tableRow;horizontal=0;startSize=0;swimlaneHead=0;swimlaneBody=0;strokeColor=inherit;top=0;left=0;bottom=0;right=0;collapsible=0;dropTarget=0;fillColor=none;points=[[0,0.5],[1,0.5]];portConstraint=eastwest;" vertex="1" parent="ieoLBsuvX7PxbXdkCon5-268">
          <mxGeometry y="28" width="110" height="27" as="geometry" />
        </mxCell>
        <mxCell id="ieoLBsuvX7PxbXdkCon5-275" value="" style="shape=partialRectangle;html=1;whiteSpace=wrap;connectable=0;strokeColor=inherit;overflow=hidden;fillColor=none;top=0;left=0;bottom=0;right=0;pointerEvents=1;" vertex="1" parent="ieoLBsuvX7PxbXdkCon5-274">
          <mxGeometry width="28" height="27" as="geometry">
            <mxRectangle width="28" height="27" as="alternateBounds" />
          </mxGeometry>
        </mxCell>
        <mxCell id="ieoLBsuvX7PxbXdkCon5-276" value="" style="shape=partialRectangle;html=1;whiteSpace=wrap;connectable=0;strokeColor=#82b366;overflow=hidden;fillColor=#d5e8d4;top=0;left=0;bottom=0;right=0;pointerEvents=1;" vertex="1" parent="ieoLBsuvX7PxbXdkCon5-274">
          <mxGeometry x="28" width="27" height="27" as="geometry">
            <mxRectangle width="27" height="27" as="alternateBounds" />
          </mxGeometry>
        </mxCell>
        <mxCell id="ieoLBsuvX7PxbXdkCon5-277" value="" style="shape=partialRectangle;html=1;whiteSpace=wrap;connectable=0;strokeColor=#82b366;overflow=hidden;fillColor=#d5e8d4;top=0;left=0;bottom=0;right=0;pointerEvents=1;" vertex="1" parent="ieoLBsuvX7PxbXdkCon5-274">
          <mxGeometry x="55" width="28" height="27" as="geometry">
            <mxRectangle width="28" height="27" as="alternateBounds" />
          </mxGeometry>
        </mxCell>
        <mxCell id="ieoLBsuvX7PxbXdkCon5-278" value="" style="shape=partialRectangle;html=1;whiteSpace=wrap;connectable=0;strokeColor=#82b366;overflow=hidden;fillColor=#d5e8d4;top=0;left=0;bottom=0;right=0;pointerEvents=1;" vertex="1" parent="ieoLBsuvX7PxbXdkCon5-274">
          <mxGeometry x="83" width="27" height="27" as="geometry">
            <mxRectangle width="27" height="27" as="alternateBounds" />
          </mxGeometry>
        </mxCell>
        <mxCell id="ieoLBsuvX7PxbXdkCon5-279" value="" style="shape=tableRow;horizontal=0;startSize=0;swimlaneHead=0;swimlaneBody=0;strokeColor=inherit;top=0;left=0;bottom=0;right=0;collapsible=0;dropTarget=0;fillColor=none;points=[[0,0.5],[1,0.5]];portConstraint=eastwest;" vertex="1" parent="ieoLBsuvX7PxbXdkCon5-268">
          <mxGeometry y="55" width="110" height="28" as="geometry" />
        </mxCell>
        <mxCell id="ieoLBsuvX7PxbXdkCon5-280" value="" style="shape=partialRectangle;html=1;whiteSpace=wrap;connectable=0;strokeColor=inherit;overflow=hidden;fillColor=none;top=0;left=0;bottom=0;right=0;pointerEvents=1;" vertex="1" parent="ieoLBsuvX7PxbXdkCon5-279">
          <mxGeometry width="28" height="28" as="geometry">
            <mxRectangle width="28" height="28" as="alternateBounds" />
          </mxGeometry>
        </mxCell>
        <mxCell id="ieoLBsuvX7PxbXdkCon5-281" value="" style="shape=partialRectangle;html=1;whiteSpace=wrap;connectable=0;strokeColor=#82b366;overflow=hidden;fillColor=#d5e8d4;top=0;left=0;bottom=0;right=0;pointerEvents=1;" vertex="1" parent="ieoLBsuvX7PxbXdkCon5-279">
          <mxGeometry x="28" width="27" height="28" as="geometry">
            <mxRectangle width="27" height="28" as="alternateBounds" />
          </mxGeometry>
        </mxCell>
        <mxCell id="ieoLBsuvX7PxbXdkCon5-282" value="" style="shape=partialRectangle;html=1;whiteSpace=wrap;connectable=0;strokeColor=#82b366;overflow=hidden;fillColor=#d5e8d4;top=0;left=0;bottom=0;right=0;pointerEvents=1;" vertex="1" parent="ieoLBsuvX7PxbXdkCon5-279">
          <mxGeometry x="55" width="28" height="28" as="geometry">
            <mxRectangle width="28" height="28" as="alternateBounds" />
          </mxGeometry>
        </mxCell>
        <mxCell id="ieoLBsuvX7PxbXdkCon5-283" value="" style="shape=partialRectangle;html=1;whiteSpace=wrap;connectable=0;strokeColor=#82b366;overflow=hidden;fillColor=#d5e8d4;top=0;left=0;bottom=0;right=0;pointerEvents=1;" vertex="1" parent="ieoLBsuvX7PxbXdkCon5-279">
          <mxGeometry x="83" width="27" height="28" as="geometry">
            <mxRectangle width="27" height="28" as="alternateBounds" />
          </mxGeometry>
        </mxCell>
        <mxCell id="ieoLBsuvX7PxbXdkCon5-284" value="" style="shape=tableRow;horizontal=0;startSize=0;swimlaneHead=0;swimlaneBody=0;strokeColor=inherit;top=0;left=0;bottom=0;right=0;collapsible=0;dropTarget=0;fillColor=none;points=[[0,0.5],[1,0.5]];portConstraint=eastwest;" vertex="1" parent="ieoLBsuvX7PxbXdkCon5-268">
          <mxGeometry y="83" width="110" height="27" as="geometry" />
        </mxCell>
        <mxCell id="ieoLBsuvX7PxbXdkCon5-285" value="" style="shape=partialRectangle;html=1;whiteSpace=wrap;connectable=0;strokeColor=inherit;overflow=hidden;fillColor=none;top=0;left=0;bottom=0;right=0;pointerEvents=1;" vertex="1" parent="ieoLBsuvX7PxbXdkCon5-284">
          <mxGeometry width="28" height="27" as="geometry">
            <mxRectangle width="28" height="27" as="alternateBounds" />
          </mxGeometry>
        </mxCell>
        <mxCell id="ieoLBsuvX7PxbXdkCon5-286" value="" style="shape=partialRectangle;html=1;whiteSpace=wrap;connectable=0;strokeColor=#82b366;overflow=hidden;fillColor=#d5e8d4;top=0;left=0;bottom=0;right=0;pointerEvents=1;" vertex="1" parent="ieoLBsuvX7PxbXdkCon5-284">
          <mxGeometry x="28" width="27" height="27" as="geometry">
            <mxRectangle width="27" height="27" as="alternateBounds" />
          </mxGeometry>
        </mxCell>
        <mxCell id="ieoLBsuvX7PxbXdkCon5-287" value="" style="shape=partialRectangle;html=1;whiteSpace=wrap;connectable=0;strokeColor=#82b366;overflow=hidden;fillColor=#d5e8d4;top=0;left=0;bottom=0;right=0;pointerEvents=1;" vertex="1" parent="ieoLBsuvX7PxbXdkCon5-284">
          <mxGeometry x="55" width="28" height="27" as="geometry">
            <mxRectangle width="28" height="27" as="alternateBounds" />
          </mxGeometry>
        </mxCell>
        <mxCell id="ieoLBsuvX7PxbXdkCon5-288" value="" style="shape=partialRectangle;html=1;whiteSpace=wrap;connectable=0;strokeColor=#82b366;overflow=hidden;fillColor=#d5e8d4;top=0;left=0;bottom=0;right=0;pointerEvents=1;" vertex="1" parent="ieoLBsuvX7PxbXdkCon5-284">
          <mxGeometry x="83" width="27" height="27" as="geometry">
            <mxRectangle width="27" height="27" as="alternateBounds" />
          </mxGeometry>
        </mxCell>
        <mxCell id="ieoLBsuvX7PxbXdkCon5-290" value="" style="shape=table;startSize=0;container=1;collapsible=0;childLayout=tableLayout;" vertex="1" parent="1">
          <mxGeometry x="40" y="760" width="110" height="110" as="geometry" />
        </mxCell>
        <mxCell id="ieoLBsuvX7PxbXdkCon5-291" value="" style="shape=tableRow;horizontal=0;startSize=0;swimlaneHead=0;swimlaneBody=0;strokeColor=inherit;top=0;left=0;bottom=0;right=0;collapsible=0;dropTarget=0;fillColor=none;points=[[0,0.5],[1,0.5]];portConstraint=eastwest;" vertex="1" parent="ieoLBsuvX7PxbXdkCon5-290">
          <mxGeometry width="110" height="28" as="geometry" />
        </mxCell>
        <mxCell id="ieoLBsuvX7PxbXdkCon5-292" value="" style="shape=partialRectangle;html=1;whiteSpace=wrap;connectable=0;strokeColor=inherit;overflow=hidden;fillColor=none;top=0;left=0;bottom=0;right=0;pointerEvents=1;" vertex="1" parent="ieoLBsuvX7PxbXdkCon5-291">
          <mxGeometry width="28" height="28" as="geometry">
            <mxRectangle width="28" height="28" as="alternateBounds" />
          </mxGeometry>
        </mxCell>
        <mxCell id="ieoLBsuvX7PxbXdkCon5-293" value="" style="shape=partialRectangle;html=1;whiteSpace=wrap;connectable=0;strokeColor=#82b366;overflow=hidden;fillColor=#d5e8d4;top=0;left=0;bottom=0;right=0;pointerEvents=1;" vertex="1" parent="ieoLBsuvX7PxbXdkCon5-291">
          <mxGeometry x="28" width="27" height="28" as="geometry">
            <mxRectangle width="27" height="28" as="alternateBounds" />
          </mxGeometry>
        </mxCell>
        <mxCell id="ieoLBsuvX7PxbXdkCon5-294" value="" style="shape=partialRectangle;html=1;whiteSpace=wrap;connectable=0;strokeColor=#82b366;overflow=hidden;fillColor=#d5e8d4;top=0;left=0;bottom=0;right=0;pointerEvents=1;" vertex="1" parent="ieoLBsuvX7PxbXdkCon5-291">
          <mxGeometry x="55" width="28" height="28" as="geometry">
            <mxRectangle width="28" height="28" as="alternateBounds" />
          </mxGeometry>
        </mxCell>
        <mxCell id="ieoLBsuvX7PxbXdkCon5-295" value="" style="shape=partialRectangle;html=1;whiteSpace=wrap;connectable=0;strokeColor=#82b366;overflow=hidden;fillColor=#d5e8d4;top=0;left=0;bottom=0;right=0;pointerEvents=1;" vertex="1" parent="ieoLBsuvX7PxbXdkCon5-291">
          <mxGeometry x="83" width="27" height="28" as="geometry">
            <mxRectangle width="27" height="28" as="alternateBounds" />
          </mxGeometry>
        </mxCell>
        <mxCell id="ieoLBsuvX7PxbXdkCon5-296" value="" style="shape=tableRow;horizontal=0;startSize=0;swimlaneHead=0;swimlaneBody=0;strokeColor=inherit;top=0;left=0;bottom=0;right=0;collapsible=0;dropTarget=0;fillColor=none;points=[[0,0.5],[1,0.5]];portConstraint=eastwest;" vertex="1" parent="ieoLBsuvX7PxbXdkCon5-290">
          <mxGeometry y="28" width="110" height="27" as="geometry" />
        </mxCell>
        <mxCell id="ieoLBsuvX7PxbXdkCon5-297" value="" style="shape=partialRectangle;html=1;whiteSpace=wrap;connectable=0;strokeColor=inherit;overflow=hidden;fillColor=none;top=0;left=0;bottom=0;right=0;pointerEvents=1;" vertex="1" parent="ieoLBsuvX7PxbXdkCon5-296">
          <mxGeometry width="28" height="27" as="geometry">
            <mxRectangle width="28" height="27" as="alternateBounds" />
          </mxGeometry>
        </mxCell>
        <mxCell id="ieoLBsuvX7PxbXdkCon5-298" value="" style="shape=partialRectangle;html=1;whiteSpace=wrap;connectable=0;strokeColor=#82b366;overflow=hidden;fillColor=#d5e8d4;top=0;left=0;bottom=0;right=0;pointerEvents=1;" vertex="1" parent="ieoLBsuvX7PxbXdkCon5-296">
          <mxGeometry x="28" width="27" height="27" as="geometry">
            <mxRectangle width="27" height="27" as="alternateBounds" />
          </mxGeometry>
        </mxCell>
        <mxCell id="ieoLBsuvX7PxbXdkCon5-299" value="" style="shape=partialRectangle;html=1;whiteSpace=wrap;connectable=0;strokeColor=#82b366;overflow=hidden;fillColor=#d5e8d4;top=0;left=0;bottom=0;right=0;pointerEvents=1;" vertex="1" parent="ieoLBsuvX7PxbXdkCon5-296">
          <mxGeometry x="55" width="28" height="27" as="geometry">
            <mxRectangle width="28" height="27" as="alternateBounds" />
          </mxGeometry>
        </mxCell>
        <mxCell id="ieoLBsuvX7PxbXdkCon5-300" value="" style="shape=partialRectangle;html=1;whiteSpace=wrap;connectable=0;strokeColor=#82b366;overflow=hidden;fillColor=#d5e8d4;top=0;left=0;bottom=0;right=0;pointerEvents=1;" vertex="1" parent="ieoLBsuvX7PxbXdkCon5-296">
          <mxGeometry x="83" width="27" height="27" as="geometry">
            <mxRectangle width="27" height="27" as="alternateBounds" />
          </mxGeometry>
        </mxCell>
        <mxCell id="ieoLBsuvX7PxbXdkCon5-301" value="" style="shape=tableRow;horizontal=0;startSize=0;swimlaneHead=0;swimlaneBody=0;strokeColor=inherit;top=0;left=0;bottom=0;right=0;collapsible=0;dropTarget=0;fillColor=none;points=[[0,0.5],[1,0.5]];portConstraint=eastwest;" vertex="1" parent="ieoLBsuvX7PxbXdkCon5-290">
          <mxGeometry y="55" width="110" height="28" as="geometry" />
        </mxCell>
        <mxCell id="ieoLBsuvX7PxbXdkCon5-302" value="" style="shape=partialRectangle;html=1;whiteSpace=wrap;connectable=0;strokeColor=inherit;overflow=hidden;fillColor=none;top=0;left=0;bottom=0;right=0;pointerEvents=1;" vertex="1" parent="ieoLBsuvX7PxbXdkCon5-301">
          <mxGeometry width="28" height="28" as="geometry">
            <mxRectangle width="28" height="28" as="alternateBounds" />
          </mxGeometry>
        </mxCell>
        <mxCell id="ieoLBsuvX7PxbXdkCon5-303" value="" style="shape=partialRectangle;html=1;whiteSpace=wrap;connectable=0;strokeColor=#82b366;overflow=hidden;fillColor=#d5e8d4;top=0;left=0;bottom=0;right=0;pointerEvents=1;" vertex="1" parent="ieoLBsuvX7PxbXdkCon5-301">
          <mxGeometry x="28" width="27" height="28" as="geometry">
            <mxRectangle width="27" height="28" as="alternateBounds" />
          </mxGeometry>
        </mxCell>
        <mxCell id="ieoLBsuvX7PxbXdkCon5-304" value="" style="shape=partialRectangle;html=1;whiteSpace=wrap;connectable=0;strokeColor=#82b366;overflow=hidden;fillColor=#d5e8d4;top=0;left=0;bottom=0;right=0;pointerEvents=1;" vertex="1" parent="ieoLBsuvX7PxbXdkCon5-301">
          <mxGeometry x="55" width="28" height="28" as="geometry">
            <mxRectangle width="28" height="28" as="alternateBounds" />
          </mxGeometry>
        </mxCell>
        <mxCell id="ieoLBsuvX7PxbXdkCon5-305" value="" style="shape=partialRectangle;html=1;whiteSpace=wrap;connectable=0;strokeColor=#82b366;overflow=hidden;fillColor=#d5e8d4;top=0;left=0;bottom=0;right=0;pointerEvents=1;" vertex="1" parent="ieoLBsuvX7PxbXdkCon5-301">
          <mxGeometry x="83" width="27" height="28" as="geometry">
            <mxRectangle width="27" height="28" as="alternateBounds" />
          </mxGeometry>
        </mxCell>
        <mxCell id="ieoLBsuvX7PxbXdkCon5-306" value="" style="shape=tableRow;horizontal=0;startSize=0;swimlaneHead=0;swimlaneBody=0;strokeColor=inherit;top=0;left=0;bottom=0;right=0;collapsible=0;dropTarget=0;fillColor=none;points=[[0,0.5],[1,0.5]];portConstraint=eastwest;" vertex="1" parent="ieoLBsuvX7PxbXdkCon5-290">
          <mxGeometry y="83" width="110" height="27" as="geometry" />
        </mxCell>
        <mxCell id="ieoLBsuvX7PxbXdkCon5-307" value="" style="shape=partialRectangle;html=1;whiteSpace=wrap;connectable=0;strokeColor=inherit;overflow=hidden;fillColor=none;top=0;left=0;bottom=0;right=0;pointerEvents=1;" vertex="1" parent="ieoLBsuvX7PxbXdkCon5-306">
          <mxGeometry width="28" height="27" as="geometry">
            <mxRectangle width="28" height="27" as="alternateBounds" />
          </mxGeometry>
        </mxCell>
        <mxCell id="ieoLBsuvX7PxbXdkCon5-308" value="" style="shape=partialRectangle;html=1;whiteSpace=wrap;connectable=0;strokeColor=#82b366;overflow=hidden;fillColor=#d5e8d4;top=0;left=0;bottom=0;right=0;pointerEvents=1;" vertex="1" parent="ieoLBsuvX7PxbXdkCon5-306">
          <mxGeometry x="28" width="27" height="27" as="geometry">
            <mxRectangle width="27" height="27" as="alternateBounds" />
          </mxGeometry>
        </mxCell>
        <mxCell id="ieoLBsuvX7PxbXdkCon5-309" value="" style="shape=partialRectangle;html=1;whiteSpace=wrap;connectable=0;strokeColor=#82b366;overflow=hidden;fillColor=#d5e8d4;top=0;left=0;bottom=0;right=0;pointerEvents=1;" vertex="1" parent="ieoLBsuvX7PxbXdkCon5-306">
          <mxGeometry x="55" width="28" height="27" as="geometry">
            <mxRectangle width="28" height="27" as="alternateBounds" />
          </mxGeometry>
        </mxCell>
        <mxCell id="ieoLBsuvX7PxbXdkCon5-310" value="" style="shape=partialRectangle;html=1;whiteSpace=wrap;connectable=0;strokeColor=#82b366;overflow=hidden;fillColor=#d5e8d4;top=0;left=0;bottom=0;right=0;pointerEvents=1;" vertex="1" parent="ieoLBsuvX7PxbXdkCon5-306">
          <mxGeometry x="83" width="27" height="27" as="geometry">
            <mxRectangle width="27" height="27" as="alternateBounds" />
          </mxGeometry>
        </mxCell>
        <mxCell id="ieoLBsuvX7PxbXdkCon5-312" value="" style="shape=table;startSize=0;container=1;collapsible=0;childLayout=tableLayout;" vertex="1" parent="1">
          <mxGeometry x="240" y="760" width="110" height="110" as="geometry" />
        </mxCell>
        <mxCell id="ieoLBsuvX7PxbXdkCon5-313" value="" style="shape=tableRow;horizontal=0;startSize=0;swimlaneHead=0;swimlaneBody=0;strokeColor=inherit;top=0;left=0;bottom=0;right=0;collapsible=0;dropTarget=0;fillColor=none;points=[[0,0.5],[1,0.5]];portConstraint=eastwest;" vertex="1" parent="ieoLBsuvX7PxbXdkCon5-312">
          <mxGeometry width="110" height="28" as="geometry" />
        </mxCell>
        <mxCell id="ieoLBsuvX7PxbXdkCon5-314" value="" style="shape=partialRectangle;html=1;whiteSpace=wrap;connectable=0;strokeColor=inherit;overflow=hidden;fillColor=none;top=0;left=0;bottom=0;right=0;pointerEvents=1;" vertex="1" parent="ieoLBsuvX7PxbXdkCon5-313">
          <mxGeometry width="28" height="28" as="geometry">
            <mxRectangle width="28" height="28" as="alternateBounds" />
          </mxGeometry>
        </mxCell>
        <mxCell id="ieoLBsuvX7PxbXdkCon5-315" value="" style="shape=partialRectangle;html=1;whiteSpace=wrap;connectable=0;strokeColor=#82b366;overflow=hidden;fillColor=#d5e8d4;top=0;left=0;bottom=0;right=0;pointerEvents=1;" vertex="1" parent="ieoLBsuvX7PxbXdkCon5-313">
          <mxGeometry x="28" width="27" height="28" as="geometry">
            <mxRectangle width="27" height="28" as="alternateBounds" />
          </mxGeometry>
        </mxCell>
        <mxCell id="ieoLBsuvX7PxbXdkCon5-316" value="" style="shape=partialRectangle;html=1;whiteSpace=wrap;connectable=0;strokeColor=#82b366;overflow=hidden;fillColor=#d5e8d4;top=0;left=0;bottom=0;right=0;pointerEvents=1;" vertex="1" parent="ieoLBsuvX7PxbXdkCon5-313">
          <mxGeometry x="55" width="28" height="28" as="geometry">
            <mxRectangle width="28" height="28" as="alternateBounds" />
          </mxGeometry>
        </mxCell>
        <mxCell id="ieoLBsuvX7PxbXdkCon5-317" value="" style="shape=partialRectangle;html=1;whiteSpace=wrap;connectable=0;strokeColor=#82b366;overflow=hidden;fillColor=#d5e8d4;top=0;left=0;bottom=0;right=0;pointerEvents=1;" vertex="1" parent="ieoLBsuvX7PxbXdkCon5-313">
          <mxGeometry x="83" width="27" height="28" as="geometry">
            <mxRectangle width="27" height="28" as="alternateBounds" />
          </mxGeometry>
        </mxCell>
        <mxCell id="ieoLBsuvX7PxbXdkCon5-318" value="" style="shape=tableRow;horizontal=0;startSize=0;swimlaneHead=0;swimlaneBody=0;strokeColor=inherit;top=0;left=0;bottom=0;right=0;collapsible=0;dropTarget=0;fillColor=none;points=[[0,0.5],[1,0.5]];portConstraint=eastwest;" vertex="1" parent="ieoLBsuvX7PxbXdkCon5-312">
          <mxGeometry y="28" width="110" height="27" as="geometry" />
        </mxCell>
        <mxCell id="ieoLBsuvX7PxbXdkCon5-319" value="" style="shape=partialRectangle;html=1;whiteSpace=wrap;connectable=0;strokeColor=inherit;overflow=hidden;fillColor=none;top=0;left=0;bottom=0;right=0;pointerEvents=1;" vertex="1" parent="ieoLBsuvX7PxbXdkCon5-318">
          <mxGeometry width="28" height="27" as="geometry">
            <mxRectangle width="28" height="27" as="alternateBounds" />
          </mxGeometry>
        </mxCell>
        <mxCell id="ieoLBsuvX7PxbXdkCon5-320" value="" style="shape=partialRectangle;html=1;whiteSpace=wrap;connectable=0;strokeColor=#82b366;overflow=hidden;fillColor=#d5e8d4;top=0;left=0;bottom=0;right=0;pointerEvents=1;" vertex="1" parent="ieoLBsuvX7PxbXdkCon5-318">
          <mxGeometry x="28" width="27" height="27" as="geometry">
            <mxRectangle width="27" height="27" as="alternateBounds" />
          </mxGeometry>
        </mxCell>
        <mxCell id="ieoLBsuvX7PxbXdkCon5-321" value="" style="shape=partialRectangle;html=1;whiteSpace=wrap;connectable=0;strokeColor=#82b366;overflow=hidden;fillColor=#d5e8d4;top=0;left=0;bottom=0;right=0;pointerEvents=1;" vertex="1" parent="ieoLBsuvX7PxbXdkCon5-318">
          <mxGeometry x="55" width="28" height="27" as="geometry">
            <mxRectangle width="28" height="27" as="alternateBounds" />
          </mxGeometry>
        </mxCell>
        <mxCell id="ieoLBsuvX7PxbXdkCon5-322" value="" style="shape=partialRectangle;html=1;whiteSpace=wrap;connectable=0;strokeColor=#82b366;overflow=hidden;fillColor=#d5e8d4;top=0;left=0;bottom=0;right=0;pointerEvents=1;" vertex="1" parent="ieoLBsuvX7PxbXdkCon5-318">
          <mxGeometry x="83" width="27" height="27" as="geometry">
            <mxRectangle width="27" height="27" as="alternateBounds" />
          </mxGeometry>
        </mxCell>
        <mxCell id="ieoLBsuvX7PxbXdkCon5-323" value="" style="shape=tableRow;horizontal=0;startSize=0;swimlaneHead=0;swimlaneBody=0;strokeColor=inherit;top=0;left=0;bottom=0;right=0;collapsible=0;dropTarget=0;fillColor=none;points=[[0,0.5],[1,0.5]];portConstraint=eastwest;" vertex="1" parent="ieoLBsuvX7PxbXdkCon5-312">
          <mxGeometry y="55" width="110" height="28" as="geometry" />
        </mxCell>
        <mxCell id="ieoLBsuvX7PxbXdkCon5-324" value="" style="shape=partialRectangle;html=1;whiteSpace=wrap;connectable=0;strokeColor=inherit;overflow=hidden;fillColor=none;top=0;left=0;bottom=0;right=0;pointerEvents=1;" vertex="1" parent="ieoLBsuvX7PxbXdkCon5-323">
          <mxGeometry width="28" height="28" as="geometry">
            <mxRectangle width="28" height="28" as="alternateBounds" />
          </mxGeometry>
        </mxCell>
        <mxCell id="ieoLBsuvX7PxbXdkCon5-325" value="" style="shape=partialRectangle;html=1;whiteSpace=wrap;connectable=0;strokeColor=#82b366;overflow=hidden;fillColor=#d5e8d4;top=0;left=0;bottom=0;right=0;pointerEvents=1;" vertex="1" parent="ieoLBsuvX7PxbXdkCon5-323">
          <mxGeometry x="28" width="27" height="28" as="geometry">
            <mxRectangle width="27" height="28" as="alternateBounds" />
          </mxGeometry>
        </mxCell>
        <mxCell id="ieoLBsuvX7PxbXdkCon5-326" value="" style="shape=partialRectangle;html=1;whiteSpace=wrap;connectable=0;strokeColor=#82b366;overflow=hidden;fillColor=#d5e8d4;top=0;left=0;bottom=0;right=0;pointerEvents=1;" vertex="1" parent="ieoLBsuvX7PxbXdkCon5-323">
          <mxGeometry x="55" width="28" height="28" as="geometry">
            <mxRectangle width="28" height="28" as="alternateBounds" />
          </mxGeometry>
        </mxCell>
        <mxCell id="ieoLBsuvX7PxbXdkCon5-327" value="" style="shape=partialRectangle;html=1;whiteSpace=wrap;connectable=0;strokeColor=#82b366;overflow=hidden;fillColor=#d5e8d4;top=0;left=0;bottom=0;right=0;pointerEvents=1;" vertex="1" parent="ieoLBsuvX7PxbXdkCon5-323">
          <mxGeometry x="83" width="27" height="28" as="geometry">
            <mxRectangle width="27" height="28" as="alternateBounds" />
          </mxGeometry>
        </mxCell>
        <mxCell id="ieoLBsuvX7PxbXdkCon5-328" value="" style="shape=tableRow;horizontal=0;startSize=0;swimlaneHead=0;swimlaneBody=0;strokeColor=inherit;top=0;left=0;bottom=0;right=0;collapsible=0;dropTarget=0;fillColor=none;points=[[0,0.5],[1,0.5]];portConstraint=eastwest;" vertex="1" parent="ieoLBsuvX7PxbXdkCon5-312">
          <mxGeometry y="83" width="110" height="27" as="geometry" />
        </mxCell>
        <mxCell id="ieoLBsuvX7PxbXdkCon5-329" value="" style="shape=partialRectangle;html=1;whiteSpace=wrap;connectable=0;strokeColor=inherit;overflow=hidden;fillColor=none;top=0;left=0;bottom=0;right=0;pointerEvents=1;" vertex="1" parent="ieoLBsuvX7PxbXdkCon5-328">
          <mxGeometry width="28" height="27" as="geometry">
            <mxRectangle width="28" height="27" as="alternateBounds" />
          </mxGeometry>
        </mxCell>
        <mxCell id="ieoLBsuvX7PxbXdkCon5-330" value="" style="shape=partialRectangle;html=1;whiteSpace=wrap;connectable=0;strokeColor=#82b366;overflow=hidden;fillColor=#d5e8d4;top=0;left=0;bottom=0;right=0;pointerEvents=1;" vertex="1" parent="ieoLBsuvX7PxbXdkCon5-328">
          <mxGeometry x="28" width="27" height="27" as="geometry">
            <mxRectangle width="27" height="27" as="alternateBounds" />
          </mxGeometry>
        </mxCell>
        <mxCell id="ieoLBsuvX7PxbXdkCon5-331" value="" style="shape=partialRectangle;html=1;whiteSpace=wrap;connectable=0;strokeColor=#82b366;overflow=hidden;fillColor=#d5e8d4;top=0;left=0;bottom=0;right=0;pointerEvents=1;" vertex="1" parent="ieoLBsuvX7PxbXdkCon5-328">
          <mxGeometry x="55" width="28" height="27" as="geometry">
            <mxRectangle width="28" height="27" as="alternateBounds" />
          </mxGeometry>
        </mxCell>
        <mxCell id="ieoLBsuvX7PxbXdkCon5-332" value="" style="shape=partialRectangle;html=1;whiteSpace=wrap;connectable=0;strokeColor=#82b366;overflow=hidden;fillColor=#d5e8d4;top=0;left=0;bottom=0;right=0;pointerEvents=1;" vertex="1" parent="ieoLBsuvX7PxbXdkCon5-328">
          <mxGeometry x="83" width="27" height="27" as="geometry">
            <mxRectangle width="27" height="27" as="alternateBounds" />
          </mxGeometry>
        </mxCell>
        <mxCell id="ieoLBsuvX7PxbXdkCon5-404" style="edgeStyle=orthogonalEdgeStyle;rounded=0;orthogonalLoop=1;jettySize=auto;html=1;exitX=0;exitY=0.5;exitDx=0;exitDy=0;entryX=1;entryY=0.5;entryDx=0;entryDy=0;" edge="1" parent="1" source="ieoLBsuvX7PxbXdkCon5-334" target="ieoLBsuvX7PxbXdkCon5-312">
          <mxGeometry relative="1" as="geometry" />
        </mxCell>
        <mxCell id="ieoLBsuvX7PxbXdkCon5-411" value="Shift Row &lt;br&gt;(inverse)" style="edgeLabel;html=1;align=center;verticalAlign=middle;resizable=0;points=[];" vertex="1" connectable="0" parent="ieoLBsuvX7PxbXdkCon5-404">
          <mxGeometry x="0.0222" y="2" relative="1" as="geometry">
            <mxPoint as="offset" />
          </mxGeometry>
        </mxCell>
        <mxCell id="ieoLBsuvX7PxbXdkCon5-334" value="" style="shape=table;startSize=0;container=1;collapsible=0;childLayout=tableLayout;" vertex="1" parent="1">
          <mxGeometry x="440" y="760" width="110" height="110" as="geometry" />
        </mxCell>
        <mxCell id="ieoLBsuvX7PxbXdkCon5-335" value="" style="shape=tableRow;horizontal=0;startSize=0;swimlaneHead=0;swimlaneBody=0;strokeColor=inherit;top=0;left=0;bottom=0;right=0;collapsible=0;dropTarget=0;fillColor=none;points=[[0,0.5],[1,0.5]];portConstraint=eastwest;" vertex="1" parent="ieoLBsuvX7PxbXdkCon5-334">
          <mxGeometry width="110" height="28" as="geometry" />
        </mxCell>
        <mxCell id="ieoLBsuvX7PxbXdkCon5-336" value="" style="shape=partialRectangle;html=1;whiteSpace=wrap;connectable=0;strokeColor=inherit;overflow=hidden;fillColor=none;top=0;left=0;bottom=0;right=0;pointerEvents=1;" vertex="1" parent="ieoLBsuvX7PxbXdkCon5-335">
          <mxGeometry width="28" height="28" as="geometry">
            <mxRectangle width="28" height="28" as="alternateBounds" />
          </mxGeometry>
        </mxCell>
        <mxCell id="ieoLBsuvX7PxbXdkCon5-337" value="" style="shape=partialRectangle;html=1;whiteSpace=wrap;connectable=0;strokeColor=#82b366;overflow=hidden;fillColor=#d5e8d4;top=0;left=0;bottom=0;right=0;pointerEvents=1;" vertex="1" parent="ieoLBsuvX7PxbXdkCon5-335">
          <mxGeometry x="28" width="27" height="28" as="geometry">
            <mxRectangle width="27" height="28" as="alternateBounds" />
          </mxGeometry>
        </mxCell>
        <mxCell id="ieoLBsuvX7PxbXdkCon5-338" value="" style="shape=partialRectangle;html=1;whiteSpace=wrap;connectable=0;strokeColor=#82b366;overflow=hidden;fillColor=#d5e8d4;top=0;left=0;bottom=0;right=0;pointerEvents=1;" vertex="1" parent="ieoLBsuvX7PxbXdkCon5-335">
          <mxGeometry x="55" width="28" height="28" as="geometry">
            <mxRectangle width="28" height="28" as="alternateBounds" />
          </mxGeometry>
        </mxCell>
        <mxCell id="ieoLBsuvX7PxbXdkCon5-339" value="" style="shape=partialRectangle;html=1;whiteSpace=wrap;connectable=0;strokeColor=#82b366;overflow=hidden;fillColor=#d5e8d4;top=0;left=0;bottom=0;right=0;pointerEvents=1;" vertex="1" parent="ieoLBsuvX7PxbXdkCon5-335">
          <mxGeometry x="83" width="27" height="28" as="geometry">
            <mxRectangle width="27" height="28" as="alternateBounds" />
          </mxGeometry>
        </mxCell>
        <mxCell id="ieoLBsuvX7PxbXdkCon5-340" value="" style="shape=tableRow;horizontal=0;startSize=0;swimlaneHead=0;swimlaneBody=0;strokeColor=inherit;top=0;left=0;bottom=0;right=0;collapsible=0;dropTarget=0;fillColor=none;points=[[0,0.5],[1,0.5]];portConstraint=eastwest;" vertex="1" parent="ieoLBsuvX7PxbXdkCon5-334">
          <mxGeometry y="28" width="110" height="27" as="geometry" />
        </mxCell>
        <mxCell id="ieoLBsuvX7PxbXdkCon5-341" value="" style="shape=partialRectangle;html=1;whiteSpace=wrap;connectable=0;strokeColor=#82b366;overflow=hidden;fillColor=#d5e8d4;top=0;left=0;bottom=0;right=0;pointerEvents=1;" vertex="1" parent="ieoLBsuvX7PxbXdkCon5-340">
          <mxGeometry width="28" height="27" as="geometry">
            <mxRectangle width="28" height="27" as="alternateBounds" />
          </mxGeometry>
        </mxCell>
        <mxCell id="ieoLBsuvX7PxbXdkCon5-342" value="" style="shape=partialRectangle;html=1;whiteSpace=wrap;connectable=0;strokeColor=#82b366;overflow=hidden;fillColor=#d5e8d4;top=0;left=0;bottom=0;right=0;pointerEvents=1;" vertex="1" parent="ieoLBsuvX7PxbXdkCon5-340">
          <mxGeometry x="28" width="27" height="27" as="geometry">
            <mxRectangle width="27" height="27" as="alternateBounds" />
          </mxGeometry>
        </mxCell>
        <mxCell id="ieoLBsuvX7PxbXdkCon5-343" value="" style="shape=partialRectangle;html=1;whiteSpace=wrap;connectable=0;strokeColor=#82b366;overflow=hidden;fillColor=#d5e8d4;top=0;left=0;bottom=0;right=0;pointerEvents=1;" vertex="1" parent="ieoLBsuvX7PxbXdkCon5-340">
          <mxGeometry x="55" width="28" height="27" as="geometry">
            <mxRectangle width="28" height="27" as="alternateBounds" />
          </mxGeometry>
        </mxCell>
        <mxCell id="ieoLBsuvX7PxbXdkCon5-344" value="" style="shape=partialRectangle;html=1;whiteSpace=wrap;connectable=0;strokeColor=inherit;overflow=hidden;fillColor=none;top=0;left=0;bottom=0;right=0;pointerEvents=1;" vertex="1" parent="ieoLBsuvX7PxbXdkCon5-340">
          <mxGeometry x="83" width="27" height="27" as="geometry">
            <mxRectangle width="27" height="27" as="alternateBounds" />
          </mxGeometry>
        </mxCell>
        <mxCell id="ieoLBsuvX7PxbXdkCon5-345" value="" style="shape=tableRow;horizontal=0;startSize=0;swimlaneHead=0;swimlaneBody=0;strokeColor=inherit;top=0;left=0;bottom=0;right=0;collapsible=0;dropTarget=0;fillColor=none;points=[[0,0.5],[1,0.5]];portConstraint=eastwest;" vertex="1" parent="ieoLBsuvX7PxbXdkCon5-334">
          <mxGeometry y="55" width="110" height="28" as="geometry" />
        </mxCell>
        <mxCell id="ieoLBsuvX7PxbXdkCon5-346" value="" style="shape=partialRectangle;html=1;whiteSpace=wrap;connectable=0;strokeColor=#82b366;overflow=hidden;fillColor=#d5e8d4;top=0;left=0;bottom=0;right=0;pointerEvents=1;" vertex="1" parent="ieoLBsuvX7PxbXdkCon5-345">
          <mxGeometry width="28" height="28" as="geometry">
            <mxRectangle width="28" height="28" as="alternateBounds" />
          </mxGeometry>
        </mxCell>
        <mxCell id="ieoLBsuvX7PxbXdkCon5-347" value="" style="shape=partialRectangle;html=1;whiteSpace=wrap;connectable=0;strokeColor=#82b366;overflow=hidden;fillColor=#d5e8d4;top=0;left=0;bottom=0;right=0;pointerEvents=1;" vertex="1" parent="ieoLBsuvX7PxbXdkCon5-345">
          <mxGeometry x="28" width="27" height="28" as="geometry">
            <mxRectangle width="27" height="28" as="alternateBounds" />
          </mxGeometry>
        </mxCell>
        <mxCell id="ieoLBsuvX7PxbXdkCon5-348" value="" style="shape=partialRectangle;html=1;whiteSpace=wrap;connectable=0;strokeColor=inherit;overflow=hidden;fillColor=none;top=0;left=0;bottom=0;right=0;pointerEvents=1;" vertex="1" parent="ieoLBsuvX7PxbXdkCon5-345">
          <mxGeometry x="55" width="28" height="28" as="geometry">
            <mxRectangle width="28" height="28" as="alternateBounds" />
          </mxGeometry>
        </mxCell>
        <mxCell id="ieoLBsuvX7PxbXdkCon5-349" value="" style="shape=partialRectangle;html=1;whiteSpace=wrap;connectable=0;strokeColor=#82b366;overflow=hidden;fillColor=#d5e8d4;top=0;left=0;bottom=0;right=0;pointerEvents=1;" vertex="1" parent="ieoLBsuvX7PxbXdkCon5-345">
          <mxGeometry x="83" width="27" height="28" as="geometry">
            <mxRectangle width="27" height="28" as="alternateBounds" />
          </mxGeometry>
        </mxCell>
        <mxCell id="ieoLBsuvX7PxbXdkCon5-350" value="" style="shape=tableRow;horizontal=0;startSize=0;swimlaneHead=0;swimlaneBody=0;strokeColor=inherit;top=0;left=0;bottom=0;right=0;collapsible=0;dropTarget=0;fillColor=none;points=[[0,0.5],[1,0.5]];portConstraint=eastwest;" vertex="1" parent="ieoLBsuvX7PxbXdkCon5-334">
          <mxGeometry y="83" width="110" height="27" as="geometry" />
        </mxCell>
        <mxCell id="ieoLBsuvX7PxbXdkCon5-351" value="" style="shape=partialRectangle;html=1;whiteSpace=wrap;connectable=0;strokeColor=#82b366;overflow=hidden;fillColor=#d5e8d4;top=0;left=0;bottom=0;right=0;pointerEvents=1;" vertex="1" parent="ieoLBsuvX7PxbXdkCon5-350">
          <mxGeometry width="28" height="27" as="geometry">
            <mxRectangle width="28" height="27" as="alternateBounds" />
          </mxGeometry>
        </mxCell>
        <mxCell id="ieoLBsuvX7PxbXdkCon5-352" value="" style="shape=partialRectangle;html=1;whiteSpace=wrap;connectable=0;strokeColor=inherit;overflow=hidden;fillColor=none;top=0;left=0;bottom=0;right=0;pointerEvents=1;" vertex="1" parent="ieoLBsuvX7PxbXdkCon5-350">
          <mxGeometry x="28" width="27" height="27" as="geometry">
            <mxRectangle width="27" height="27" as="alternateBounds" />
          </mxGeometry>
        </mxCell>
        <mxCell id="ieoLBsuvX7PxbXdkCon5-353" value="" style="shape=partialRectangle;html=1;whiteSpace=wrap;connectable=0;strokeColor=#82b366;overflow=hidden;fillColor=#d5e8d4;top=0;left=0;bottom=0;right=0;pointerEvents=1;" vertex="1" parent="ieoLBsuvX7PxbXdkCon5-350">
          <mxGeometry x="55" width="28" height="27" as="geometry">
            <mxRectangle width="28" height="27" as="alternateBounds" />
          </mxGeometry>
        </mxCell>
        <mxCell id="ieoLBsuvX7PxbXdkCon5-354" value="" style="shape=partialRectangle;html=1;whiteSpace=wrap;connectable=0;strokeColor=#82b366;overflow=hidden;fillColor=#d5e8d4;top=0;left=0;bottom=0;right=0;pointerEvents=1;" vertex="1" parent="ieoLBsuvX7PxbXdkCon5-350">
          <mxGeometry x="83" width="27" height="27" as="geometry">
            <mxRectangle width="27" height="27" as="alternateBounds" />
          </mxGeometry>
        </mxCell>
        <mxCell id="ieoLBsuvX7PxbXdkCon5-406" style="edgeStyle=orthogonalEdgeStyle;rounded=0;orthogonalLoop=1;jettySize=auto;html=1;exitX=0;exitY=0.5;exitDx=0;exitDy=0;entryX=1.018;entryY=0.071;entryDx=0;entryDy=0;entryPerimeter=0;" edge="1" parent="1" source="ieoLBsuvX7PxbXdkCon5-355" target="ieoLBsuvX7PxbXdkCon5-345">
          <mxGeometry relative="1" as="geometry" />
        </mxCell>
        <mxCell id="ieoLBsuvX7PxbXdkCon5-410" value="ARK" style="edgeLabel;html=1;align=center;verticalAlign=middle;resizable=0;points=[];" vertex="1" connectable="0" parent="ieoLBsuvX7PxbXdkCon5-406">
          <mxGeometry x="0.0225" y="-1" relative="1" as="geometry">
            <mxPoint as="offset" />
          </mxGeometry>
        </mxCell>
        <mxCell id="ieoLBsuvX7PxbXdkCon5-355" value="" style="shape=table;startSize=0;container=1;collapsible=0;childLayout=tableLayout;" vertex="1" parent="1">
          <mxGeometry x="640" y="762" width="110" height="110" as="geometry" />
        </mxCell>
        <mxCell id="ieoLBsuvX7PxbXdkCon5-356" value="" style="shape=tableRow;horizontal=0;startSize=0;swimlaneHead=0;swimlaneBody=0;strokeColor=inherit;top=0;left=0;bottom=0;right=0;collapsible=0;dropTarget=0;fillColor=none;points=[[0,0.5],[1,0.5]];portConstraint=eastwest;" vertex="1" parent="ieoLBsuvX7PxbXdkCon5-355">
          <mxGeometry width="110" height="28" as="geometry" />
        </mxCell>
        <mxCell id="ieoLBsuvX7PxbXdkCon5-357" value="" style="shape=partialRectangle;html=1;whiteSpace=wrap;connectable=0;strokeColor=inherit;overflow=hidden;fillColor=none;top=0;left=0;bottom=0;right=0;pointerEvents=1;" vertex="1" parent="ieoLBsuvX7PxbXdkCon5-356">
          <mxGeometry width="28" height="28" as="geometry">
            <mxRectangle width="28" height="28" as="alternateBounds" />
          </mxGeometry>
        </mxCell>
        <mxCell id="ieoLBsuvX7PxbXdkCon5-358" value="" style="shape=partialRectangle;html=1;whiteSpace=wrap;connectable=0;strokeColor=#82b366;overflow=hidden;fillColor=#d5e8d4;top=0;left=0;bottom=0;right=0;pointerEvents=1;" vertex="1" parent="ieoLBsuvX7PxbXdkCon5-356">
          <mxGeometry x="28" width="27" height="28" as="geometry">
            <mxRectangle width="27" height="28" as="alternateBounds" />
          </mxGeometry>
        </mxCell>
        <mxCell id="ieoLBsuvX7PxbXdkCon5-359" value="" style="shape=partialRectangle;html=1;whiteSpace=wrap;connectable=0;strokeColor=#82b366;overflow=hidden;fillColor=#d5e8d4;top=0;left=0;bottom=0;right=0;pointerEvents=1;" vertex="1" parent="ieoLBsuvX7PxbXdkCon5-356">
          <mxGeometry x="55" width="28" height="28" as="geometry">
            <mxRectangle width="28" height="28" as="alternateBounds" />
          </mxGeometry>
        </mxCell>
        <mxCell id="ieoLBsuvX7PxbXdkCon5-360" value="" style="shape=partialRectangle;html=1;whiteSpace=wrap;connectable=0;strokeColor=#82b366;overflow=hidden;fillColor=#d5e8d4;top=0;left=0;bottom=0;right=0;pointerEvents=1;" vertex="1" parent="ieoLBsuvX7PxbXdkCon5-356">
          <mxGeometry x="83" width="27" height="28" as="geometry">
            <mxRectangle width="27" height="28" as="alternateBounds" />
          </mxGeometry>
        </mxCell>
        <mxCell id="ieoLBsuvX7PxbXdkCon5-361" value="" style="shape=tableRow;horizontal=0;startSize=0;swimlaneHead=0;swimlaneBody=0;strokeColor=inherit;top=0;left=0;bottom=0;right=0;collapsible=0;dropTarget=0;fillColor=none;points=[[0,0.5],[1,0.5]];portConstraint=eastwest;" vertex="1" parent="ieoLBsuvX7PxbXdkCon5-355">
          <mxGeometry y="28" width="110" height="27" as="geometry" />
        </mxCell>
        <mxCell id="ieoLBsuvX7PxbXdkCon5-362" value="" style="shape=partialRectangle;html=1;whiteSpace=wrap;connectable=0;strokeColor=#82b366;overflow=hidden;fillColor=#d5e8d4;top=0;left=0;bottom=0;right=0;pointerEvents=1;" vertex="1" parent="ieoLBsuvX7PxbXdkCon5-361">
          <mxGeometry width="28" height="27" as="geometry">
            <mxRectangle width="28" height="27" as="alternateBounds" />
          </mxGeometry>
        </mxCell>
        <mxCell id="ieoLBsuvX7PxbXdkCon5-363" value="" style="shape=partialRectangle;html=1;whiteSpace=wrap;connectable=0;strokeColor=#82b366;overflow=hidden;fillColor=#d5e8d4;top=0;left=0;bottom=0;right=0;pointerEvents=1;" vertex="1" parent="ieoLBsuvX7PxbXdkCon5-361">
          <mxGeometry x="28" width="27" height="27" as="geometry">
            <mxRectangle width="27" height="27" as="alternateBounds" />
          </mxGeometry>
        </mxCell>
        <mxCell id="ieoLBsuvX7PxbXdkCon5-364" value="" style="shape=partialRectangle;html=1;whiteSpace=wrap;connectable=0;strokeColor=#82b366;overflow=hidden;fillColor=#d5e8d4;top=0;left=0;bottom=0;right=0;pointerEvents=1;" vertex="1" parent="ieoLBsuvX7PxbXdkCon5-361">
          <mxGeometry x="55" width="28" height="27" as="geometry">
            <mxRectangle width="28" height="27" as="alternateBounds" />
          </mxGeometry>
        </mxCell>
        <mxCell id="ieoLBsuvX7PxbXdkCon5-365" value="" style="shape=partialRectangle;html=1;whiteSpace=wrap;connectable=0;strokeColor=inherit;overflow=hidden;fillColor=none;top=0;left=0;bottom=0;right=0;pointerEvents=1;" vertex="1" parent="ieoLBsuvX7PxbXdkCon5-361">
          <mxGeometry x="83" width="27" height="27" as="geometry">
            <mxRectangle width="27" height="27" as="alternateBounds" />
          </mxGeometry>
        </mxCell>
        <mxCell id="ieoLBsuvX7PxbXdkCon5-366" value="" style="shape=tableRow;horizontal=0;startSize=0;swimlaneHead=0;swimlaneBody=0;strokeColor=inherit;top=0;left=0;bottom=0;right=0;collapsible=0;dropTarget=0;fillColor=none;points=[[0,0.5],[1,0.5]];portConstraint=eastwest;" vertex="1" parent="ieoLBsuvX7PxbXdkCon5-355">
          <mxGeometry y="55" width="110" height="28" as="geometry" />
        </mxCell>
        <mxCell id="ieoLBsuvX7PxbXdkCon5-367" value="" style="shape=partialRectangle;html=1;whiteSpace=wrap;connectable=0;strokeColor=#82b366;overflow=hidden;fillColor=#d5e8d4;top=0;left=0;bottom=0;right=0;pointerEvents=1;" vertex="1" parent="ieoLBsuvX7PxbXdkCon5-366">
          <mxGeometry width="28" height="28" as="geometry">
            <mxRectangle width="28" height="28" as="alternateBounds" />
          </mxGeometry>
        </mxCell>
        <mxCell id="ieoLBsuvX7PxbXdkCon5-368" value="" style="shape=partialRectangle;html=1;whiteSpace=wrap;connectable=0;strokeColor=#82b366;overflow=hidden;fillColor=#d5e8d4;top=0;left=0;bottom=0;right=0;pointerEvents=1;" vertex="1" parent="ieoLBsuvX7PxbXdkCon5-366">
          <mxGeometry x="28" width="27" height="28" as="geometry">
            <mxRectangle width="27" height="28" as="alternateBounds" />
          </mxGeometry>
        </mxCell>
        <mxCell id="ieoLBsuvX7PxbXdkCon5-369" value="" style="shape=partialRectangle;html=1;whiteSpace=wrap;connectable=0;strokeColor=inherit;overflow=hidden;fillColor=none;top=0;left=0;bottom=0;right=0;pointerEvents=1;" vertex="1" parent="ieoLBsuvX7PxbXdkCon5-366">
          <mxGeometry x="55" width="28" height="28" as="geometry">
            <mxRectangle width="28" height="28" as="alternateBounds" />
          </mxGeometry>
        </mxCell>
        <mxCell id="ieoLBsuvX7PxbXdkCon5-370" value="" style="shape=partialRectangle;html=1;whiteSpace=wrap;connectable=0;strokeColor=#82b366;overflow=hidden;fillColor=#d5e8d4;top=0;left=0;bottom=0;right=0;pointerEvents=1;" vertex="1" parent="ieoLBsuvX7PxbXdkCon5-366">
          <mxGeometry x="83" width="27" height="28" as="geometry">
            <mxRectangle width="27" height="28" as="alternateBounds" />
          </mxGeometry>
        </mxCell>
        <mxCell id="ieoLBsuvX7PxbXdkCon5-371" value="" style="shape=tableRow;horizontal=0;startSize=0;swimlaneHead=0;swimlaneBody=0;strokeColor=inherit;top=0;left=0;bottom=0;right=0;collapsible=0;dropTarget=0;fillColor=none;points=[[0,0.5],[1,0.5]];portConstraint=eastwest;" vertex="1" parent="ieoLBsuvX7PxbXdkCon5-355">
          <mxGeometry y="83" width="110" height="27" as="geometry" />
        </mxCell>
        <mxCell id="ieoLBsuvX7PxbXdkCon5-372" value="" style="shape=partialRectangle;html=1;whiteSpace=wrap;connectable=0;strokeColor=#82b366;overflow=hidden;fillColor=#d5e8d4;top=0;left=0;bottom=0;right=0;pointerEvents=1;" vertex="1" parent="ieoLBsuvX7PxbXdkCon5-371">
          <mxGeometry width="28" height="27" as="geometry">
            <mxRectangle width="28" height="27" as="alternateBounds" />
          </mxGeometry>
        </mxCell>
        <mxCell id="ieoLBsuvX7PxbXdkCon5-373" value="" style="shape=partialRectangle;html=1;whiteSpace=wrap;connectable=0;strokeColor=inherit;overflow=hidden;fillColor=none;top=0;left=0;bottom=0;right=0;pointerEvents=1;" vertex="1" parent="ieoLBsuvX7PxbXdkCon5-371">
          <mxGeometry x="28" width="27" height="27" as="geometry">
            <mxRectangle width="27" height="27" as="alternateBounds" />
          </mxGeometry>
        </mxCell>
        <mxCell id="ieoLBsuvX7PxbXdkCon5-374" value="" style="shape=partialRectangle;html=1;whiteSpace=wrap;connectable=0;strokeColor=#82b366;overflow=hidden;fillColor=#d5e8d4;top=0;left=0;bottom=0;right=0;pointerEvents=1;" vertex="1" parent="ieoLBsuvX7PxbXdkCon5-371">
          <mxGeometry x="55" width="28" height="27" as="geometry">
            <mxRectangle width="28" height="27" as="alternateBounds" />
          </mxGeometry>
        </mxCell>
        <mxCell id="ieoLBsuvX7PxbXdkCon5-375" value="" style="shape=partialRectangle;html=1;whiteSpace=wrap;connectable=0;strokeColor=#82b366;overflow=hidden;fillColor=#d5e8d4;top=0;left=0;bottom=0;right=0;pointerEvents=1;" vertex="1" parent="ieoLBsuvX7PxbXdkCon5-371">
          <mxGeometry x="83" width="27" height="27" as="geometry">
            <mxRectangle width="27" height="27" as="alternateBounds" />
          </mxGeometry>
        </mxCell>
        <mxCell id="ieoLBsuvX7PxbXdkCon5-378" value="" style="curved=1;endArrow=classic;html=1;rounded=0;" edge="1" parent="1">
          <mxGeometry width="50" height="50" relative="1" as="geometry">
            <mxPoint x="770" y="100" as="sourcePoint" />
            <mxPoint x="30" y="340" as="targetPoint" />
            <Array as="points">
              <mxPoint x="830" y="230" />
              <mxPoint x="50" y="190" />
              <mxPoint x="-20" y="340" />
            </Array>
          </mxGeometry>
        </mxCell>
        <mxCell id="ieoLBsuvX7PxbXdkCon5-380" value="" style="curved=1;endArrow=classic;html=1;rounded=0;" edge="1" parent="1">
          <mxGeometry width="50" height="50" relative="1" as="geometry">
            <mxPoint x="767" y="340" as="sourcePoint" />
            <mxPoint x="27" y="580" as="targetPoint" />
            <Array as="points">
              <mxPoint x="827" y="470" />
              <mxPoint x="47" y="430" />
              <mxPoint x="-23" y="580" />
            </Array>
          </mxGeometry>
        </mxCell>
        <mxCell id="ieoLBsuvX7PxbXdkCon5-408" value="Impossible propagation" style="edgeLabel;html=1;align=center;verticalAlign=middle;resizable=0;points=[];" vertex="1" connectable="0" parent="ieoLBsuvX7PxbXdkCon5-380">
          <mxGeometry x="0.0684" y="-1" relative="1" as="geometry">
            <mxPoint as="offset" />
          </mxGeometry>
        </mxCell>
        <mxCell id="ieoLBsuvX7PxbXdkCon5-381" value="" style="curved=1;endArrow=classic;html=1;rounded=0;" edge="1" parent="1">
          <mxGeometry width="50" height="50" relative="1" as="geometry">
            <mxPoint x="27" y="810" as="sourcePoint" />
            <mxPoint x="767" y="570" as="targetPoint" />
            <Array as="points">
              <mxPoint x="-23" y="810" />
              <mxPoint x="47" y="660" />
              <mxPoint x="827" y="700" />
            </Array>
          </mxGeometry>
        </mxCell>
        <mxCell id="ieoLBsuvX7PxbXdkCon5-409" value="Add Round Key" style="edgeLabel;html=1;align=center;verticalAlign=middle;resizable=0;points=[];" vertex="1" connectable="0" parent="ieoLBsuvX7PxbXdkCon5-381">
          <mxGeometry x="-0.0072" relative="1" as="geometry">
            <mxPoint as="offset" />
          </mxGeometry>
        </mxCell>
        <mxCell id="ieoLBsuvX7PxbXdkCon5-407" style="edgeStyle=orthogonalEdgeStyle;rounded=0;orthogonalLoop=1;jettySize=auto;html=1;exitX=0;exitY=0.5;exitDx=0;exitDy=0;entryX=1;entryY=0.5;entryDx=0;entryDy=0;" edge="1" parent="1" source="ieoLBsuvX7PxbXdkCon5-318" target="ieoLBsuvX7PxbXdkCon5-296">
          <mxGeometry relative="1" as="geometry" />
        </mxCell>
        <mxCell id="ieoLBsuvX7PxbXdkCon5-412" value="Sub Bytes&lt;br&gt;(inverse)" style="edgeLabel;html=1;align=center;verticalAlign=middle;resizable=0;points=[];" vertex="1" connectable="0" parent="ieoLBsuvX7PxbXdkCon5-407">
          <mxGeometry x="0.1556" y="1" relative="1" as="geometry">
            <mxPoint as="offset" />
          </mxGeometry>
        </mxCell>
      </root>
    </mxGraphModel>
  </diagram>
</mxfile>
